<svg width="82" height="87" viewBox="0 0 82 87" fill="none" xmlns="http://www.w3.org/2000/svg">
<path d="M0.88 86.28V2.27999H15.64L13.36 19.2H15.16C17.08 13.52 20.68 9.04 25.96 5.76C31.32 2.39999 38.28 0.719994 46.84 0.719994C53.96 0.719994 60.16 2.08 65.44 4.8C70.72 7.52 74.76 11.32 77.56 16.2C80.44 21 81.88 26.48 81.88 32.64C81.88 38.8 80.44 44.32 77.56 49.2C74.76 54 70.72 57.76 65.44 60.48C60.16 63.12 53.96 64.44 46.84 64.44C38.2 64.44 31.24 62.8 25.96 59.52C20.68 56.24 17.08 51.76 15.16 46.08H13.36C14.16 50.64 14.72 54.52 15.04 57.72C15.44 60.92 15.64 64.32 15.64 67.92V86.28H0.88ZM41.44 52.56C49.52 52.56 55.8 50.72 60.28 47.04C64.76 43.28 67 38.48 67 32.64C67 26.8 64.76 22.04 60.28 18.36C55.8 14.6 49.52 12.72 41.44 12.72C33.28 12.72 26.96 14.6 22.48 18.36C18 22.04 15.76 26.8 15.76 32.64C15.76 38.48 18 43.28 22.48 47.04C26.96 50.72 33.28 52.56 41.44 52.56Z" fill="#F9E9E0"/>
</svg>
