<svg width="86" height="65" viewBox="0 0 86 65" fill="none" xmlns="http://www.w3.org/2000/svg">
<path d="M30.16 64.44C20.48 64.44 13.36 62.8 8.8 59.52C4.24 56.24 1.96 51.8 1.96 46.2C1.96 40.6 4.24 36.16 8.8 32.88C13.36 29.6 20.48 27.96 30.16 27.96C37.52 27.96 43.64 28.68 48.52 30.12C53.4 31.48 58.16 33.48 62.8 36.12V30.84C62.8 25.24 60.76 20.8 56.68 17.52C52.6 14.16 46.6 12.48 38.68 12.48C31.48 12.48 25.92 13.68 22 16.08C18.16 18.4 15.8 21.28 14.92 24.72H0.16C1.04 17.76 4.68 12.04 11.08 7.56C17.48 3 26.72 0.719994 38.8 0.719994C51.6 0.719994 61.24 3.48 67.72 9C74.2 14.44 77.44 21.88 77.44 31.32V46.92C77.44 50.44 79.04 52.2 82.24 52.2C83.52 52.2 84.76 52.04 85.96 51.72V63.36C83.8 64.08 81.4 64.44 78.76 64.44C74.36 64.44 70.96 63.4 68.56 61.32C66.24 59.24 65.08 56.44 65.08 52.92V52.32H63.28V52.44C63.28 54.36 62 56.24 59.44 58.08C56.88 59.92 53.08 61.44 48.04 62.64C43 63.84 37.04 64.44 30.16 64.44ZM35.44 53.88C45.76 53.88 54.88 51.68 62.8 47.28V43.44C58.56 41.52 54.36 40.04 50.2 39C46.04 37.96 41.12 37.44 35.44 37.44C28.48 37.44 23.64 38.16 20.92 39.6C18.2 41.04 16.84 43.04 16.84 45.6C16.84 48.24 18.2 50.28 20.92 51.72C23.64 53.16 28.48 53.88 35.44 53.88Z" fill="#F9E9E0"/>
</svg>
