<svg width="85" height="88" viewBox="0 0 85 88" fill="none" xmlns="http://www.w3.org/2000/svg">
<path d="M42.6 87.44C28.44 87.44 17.8 84.16 10.68 77.6C3.56 71.04 8.9407e-08 61.52 8.9407e-08 49.04C8.9407e-08 35.92 3.72 26 11.16 19.28C18.68 12.56 30.2 9.19999 45.72 9.19999C52.68 9.19999 57.88 8.92 61.32 8.36C64.76 7.72 67.04 6.8 68.16 5.6C69.28 4.39999 69.84 2.71999 69.84 0.559999H84.72C84.72 5.92 83.8 10.04 81.96 12.92C80.12 15.8 76.64 17.92 71.52 19.28C66.48 20.56 58.96 21.2 48.96 21.2C36.16 21.2 27 23.36 21.48 27.68C15.96 32 13.2 38.48 13.2 47.12V48.44H14.64C17.76 37.16 28.48 31.52 46.8 31.52C54.64 31.52 61.24 32.72 66.6 35.12C72.04 37.44 76.08 40.68 78.72 44.84C81.44 49 82.8 53.72 82.8 59C82.8 67.72 79.48 74.64 72.84 79.76C66.2 84.88 56.12 87.44 42.6 87.44ZM42 75.68C50.8 75.68 57.32 74.16 61.56 71.12C65.88 68 68.04 63.96 68.04 59C68.04 54.12 65.88 50.2 61.56 47.24C57.32 44.2 50.8 42.68 42 42.68C33.12 42.68 26.56 44.2 22.32 47.24C18.08 50.2 15.96 54.12 15.96 59C15.96 63.96 18.08 68 22.32 71.12C26.56 74.16 33.12 75.68 42 75.68Z" fill="#F9E9E0"/>
</svg>
