<svg width="84" height="65" viewBox="0 0 84 65" fill="none" xmlns="http://www.w3.org/2000/svg">
<path d="M42.16 64.44C33.28 64.44 25.68 63.04 19.36 60.24C13.12 57.44 8.4 53.64 5.2 48.84C2 44.04 0.4 38.64 0.4 32.64C0.4 26.64 2 21.24 5.2 16.44C8.4 11.56 13.12 7.72 19.36 4.92C25.68 2.11999 33.28 0.719994 42.16 0.719994C51.04 0.719994 58.6 2.11999 64.84 4.92C71.16 7.72 75.92 11.56 79.12 16.44C82.32 21.24 83.92 26.64 83.92 32.64C83.92 38.64 82.32 44.04 79.12 48.84C75.92 53.64 71.16 57.44 64.84 60.24C58.6 63.04 51.04 64.44 42.16 64.44ZM42.16 52.56C47.92 52.56 52.84 51.68 56.92 49.92C61 48.16 64.04 45.8 66.04 42.84C68.12 39.8 69.16 36.4 69.16 32.64C69.16 28.88 68.12 25.52 66.04 22.56C64.04 19.52 61 17.12 56.92 15.36C52.84 13.6 47.92 12.72 42.16 12.72C36.4 12.72 31.48 13.6 27.4 15.36C23.32 17.12 20.24 19.52 18.16 22.56C16.16 25.52 15.16 28.88 15.16 32.64C15.16 36.4 16.16 39.8 18.16 42.84C20.24 45.8 23.32 48.16 27.4 49.92C31.48 51.68 36.4 52.56 42.16 52.56Z" fill="#F9E9E0"/>
</svg>
