<svg width="83" height="65" viewBox="0 0 83 65" fill="none" xmlns="http://www.w3.org/2000/svg">
<path d="M82.6 32.76C82.6 34.04 82.52 35.64 82.36 37.56L14.92 37.56C16.04 42.36 18.88 46.2 23.44 49.08C28 51.96 34.08 53.4 41.68 53.4C53.52 53.4 61.84 50.12 66.64 43.56L81.16 43.56C79.88 46.92 77.68 50.2 74.56 53.4C71.52 56.52 67.2 59.16 61.6 61.32C56.08 63.4 49.32 64.44 41.32 64.44C32.68 64.44 25.28 63.04 19.12 60.24C12.96 57.44 8.28 53.64 5.08 48.84C1.96 44.04 0.4 38.64 0.4 32.64C0.4 26.64 2 21.24 5.2 16.44C8.4 11.56 13.08 7.72 19.24 4.92C25.4 2.11999 32.84 0.719994 41.56 0.719994C50.28 0.719994 57.72 2.11999 63.88 4.92C70.04 7.72 74.68 11.56 77.8 16.44C81 21.32 82.6 26.76 82.6 32.76ZM41.56 11.88C33.88 11.88 27.76 13.36 23.2 16.32C18.64 19.28 15.84 23.24 14.8 28.2H68.2C67.16 23.24 64.36 19.28 59.8 16.32C55.24 13.36 49.16 11.88 41.56 11.88Z" fill="#F9E9E0"/>
</svg>
