<svg width="1001" height="372" viewBox="0 0 1001 372" fill="none" xmlns="http://www.w3.org/2000/svg">
<g clip-path="url(#clip0_293_158)">
<rect width="1001" height="372" fill="#7EA3AC"/>
<path d="M216.416 272.358L220.167 289.372C220.796 292.223 221.085 295.139 221.028 298.058L220.827 308.454C220.597 320.313 214.695 331.343 204.957 338.114L200.125 341.474C195.894 344.416 191.095 346.442 186.035 347.422L172.62 350.019C169.447 350.634 166.204 350.874 163.003 350.427C146.834 348.169 119.675 339.525 110.683 318.089C104.158 302.534 103.208 289.718 104.107 281.117C104.801 274.47 109.475 269.304 115.061 265.634L143.112 247.206L152.611 241.958C160.162 237.786 168.934 236.384 177.409 237.994L177.731 238.055C181.979 238.862 186.541 238.565 190.537 240.218C198.573 243.542 206.989 253.994 212.292 262.125C214.318 265.233 215.617 268.735 216.416 272.358Z" fill="#B10729"/>
<path d="M179.084 279.157L184.709 283.628C187.7 286.005 189.973 289.163 191.277 292.753C193.202 298.054 192.879 303.91 190.381 308.966L188.357 313.064C186.796 316.224 184.465 318.94 181.579 320.962L179.023 322.753C174.169 326.154 168.104 327.345 162.324 326.032L159.224 325.329C154.555 324.269 150.388 321.645 147.415 317.893L138.643 306.824C137.514 305.399 136.665 303.774 136.141 302.033C134.3 295.913 136.717 289.312 142.075 285.827L153.396 278.465C154.535 277.725 155.742 277.097 157.002 276.589L158.175 276.117C165.184 273.295 173.169 274.456 179.084 279.157Z" fill="#7EA3AC"/>
<path d="M546.093 272.358L549.844 289.372C550.473 292.223 550.762 295.139 550.705 298.058L550.504 308.454C550.274 320.313 544.372 331.343 534.634 338.114L529.802 341.474C525.571 344.416 520.772 346.442 515.712 347.422L502.297 350.019C499.124 350.634 495.881 350.874 492.68 350.427C476.511 348.169 449.352 339.525 440.36 318.089C433.835 302.534 432.885 289.718 433.784 281.117C434.478 274.47 439.152 269.304 444.738 265.634L472.789 247.206L482.288 241.958C489.839 237.786 498.611 236.384 507.086 237.994L507.408 238.055C511.656 238.862 516.218 238.565 520.214 240.218C528.25 243.542 536.666 253.994 541.969 262.125C543.995 265.233 545.294 268.735 546.093 272.358Z" fill="#B10729"/>
<path d="M508.761 279.157L514.386 283.628C517.377 286.005 519.65 289.163 520.954 292.753C522.879 298.054 522.556 303.91 520.058 308.966L518.034 313.064C516.473 316.224 514.142 318.94 511.256 320.962L508.7 322.753C503.846 326.154 497.781 327.345 492.001 326.032L488.901 325.329C484.232 324.269 480.066 321.645 477.092 317.893L468.32 306.824C467.191 305.399 466.342 303.774 465.819 302.033C463.977 295.913 466.394 289.312 471.752 285.827L483.073 278.465C484.212 277.725 485.419 277.097 486.679 276.589L487.852 276.117C494.861 273.295 502.846 274.456 508.761 279.157Z" fill="#7EA3AC"/>
<path d="M881.77 272.358L885.521 289.372C886.15 292.223 886.439 295.139 886.382 298.058L886.181 308.454C885.951 320.313 880.049 331.343 870.311 338.114L865.479 341.474C861.248 344.416 856.449 346.442 851.389 347.422L837.974 350.019C834.801 350.634 831.558 350.874 828.357 350.427C812.188 348.169 785.029 339.525 776.037 318.089C769.512 302.534 768.562 289.718 769.461 281.117C770.155 274.47 774.829 269.304 780.415 265.634L808.466 247.206L817.965 241.958C825.516 237.786 834.288 236.384 842.763 237.994L843.085 238.055C847.333 238.862 851.895 238.565 855.891 240.218C863.927 243.542 872.343 253.994 877.646 262.125C879.672 265.233 880.971 268.735 881.77 272.358Z" fill="#B10729"/>
<path d="M844.438 279.157L850.063 283.628C853.054 286.005 855.327 289.163 856.631 292.753C858.556 298.054 858.233 303.91 855.735 308.966L853.711 313.064C852.15 316.224 849.819 318.94 846.933 320.962L844.377 322.753C839.523 326.154 833.458 327.345 827.678 326.032L824.578 325.329C819.909 324.269 815.743 321.645 812.769 317.893L803.997 306.824C802.868 305.399 802.019 303.774 801.496 302.033C799.654 295.913 802.071 289.312 807.429 285.827L818.75 278.465C819.889 277.725 821.096 277.097 822.356 276.589L823.529 276.117C830.538 273.295 838.523 274.456 844.438 279.157Z" fill="#7EA3AC"/>
<path d="M48.8604 122.383C57.3716 119.151 66.2736 117.061 75.3339 116.169L117.025 112.065L253.719 110.332L279.328 113.309L285.863 148.141L285.03 149.302C267.934 173.126 242.654 189.809 214.026 196.157V196.157L92.7489 214.414C81.5712 216.097 70.1626 215.361 59.2936 212.257L33.6776 204.941L63.066 191.647L29.7795 182.14L61.5165 165.179L23.8188 157.448L54.9257 141.175L29.0867 129.891L48.8604 122.383Z" fill="#F9E9E0"/>
<path d="M302.874 114.396L285.862 148.142L279.328 113.31L302.874 114.396Z" fill="#1E1E1E"/>
<path d="M144.263 44.4009C149.876 47.2655 154.712 51.4465 158.358 56.5866V56.5866C167.435 69.3843 174.071 83.7479 177.934 98.9551L181.927 114.678L122.658 135.123L119.168 125.967C114.411 113.486 107.787 101.798 99.5228 91.3042L92.6209 82.5396C90.6275 80.0082 90.8021 76.3955 93.0304 74.0682V74.0682C94.6344 72.3929 97.0129 71.7051 99.2635 72.2659L107.257 74.2575L102.309 67.4959C100.23 64.6562 100.362 60.7641 102.627 58.071V58.071C105.032 55.2109 109.154 54.512 112.368 56.4194L123.993 63.3192L118.023 55.9715C112.964 49.7456 116.612 40.3801 124.549 39.2168V39.2168L125.938 39.1869C128.896 39.1232 131.847 39.4914 134.698 40.2798V40.2798C136.859 40.8773 138.955 41.6919 140.952 42.7112L144.263 44.4009Z" fill="#F9E9E0"/>
<path fill-rule="evenodd" clip-rule="evenodd" d="M176.758 252.103L190.761 250.491L191.79 259.432L168.948 262.061L168.391 257.223L160.856 203.765L169.768 202.508L176.758 252.103Z" fill="#1E1E1E"/>
<path fill-rule="evenodd" clip-rule="evenodd" d="M145.248 257.241L159.25 255.629L160.279 264.57L137.438 267.2L136.881 262.361L129.346 208.903L138.258 207.647L145.248 257.241Z" fill="#1E1E1E"/>
<ellipse cx="238.869" cy="133.264" rx="7.22207" ry="6.79725" transform="rotate(15.9395 238.869 133.264)" fill="#1E1E1E"/>
<path d="M380.157 122.361C388.668 119.129 397.57 117.04 406.631 116.148L448.322 112.043L585.016 110.311L610.625 113.287L617.16 148.119L616.326 149.28C599.231 173.104 573.95 189.787 545.323 196.135V196.135L424.046 214.392C412.868 216.075 401.459 215.339 390.59 212.235L364.974 204.919L394.363 191.625L361.076 182.118L392.813 165.157L355.115 157.427L386.222 141.153L360.383 129.869L380.157 122.361Z" fill="#F9E9E0"/>
<path d="M634.171 114.374L617.159 148.12L610.624 113.288L634.171 114.374Z" fill="#1E1E1E"/>
<path d="M494.305 50.4531C498.542 55.1181 501.586 60.7396 503.178 66.837V66.837C507.141 82.0184 508.267 97.8009 506.5 113.391L504.673 129.51L442.004 127.666L441.978 117.867C441.944 104.51 439.883 91.2351 435.866 78.4961L432.511 67.8566C431.542 64.7837 432.983 61.4664 435.891 60.0779V60.0779C437.984 59.0783 440.452 59.2765 442.358 60.5971L449.131 65.2879L446.894 57.2128C445.955 53.8216 447.455 50.2276 450.526 48.51V48.51C453.787 46.6858 457.89 47.4903 460.221 50.4112L468.654 60.9775L465.669 51.9927C463.139 44.3797 469.865 36.9104 477.701 38.6303V38.6303L479.01 39.0937C481.799 40.0805 484.429 41.4688 486.817 43.2148V43.2148C488.627 44.5383 490.299 46.0414 491.806 47.7013L494.305 50.4531Z" fill="#F9E9E0"/>
<path fill-rule="evenodd" clip-rule="evenodd" d="M508.055 252.081L522.057 250.469L523.087 259.41L500.245 262.039L499.688 257.201L492.153 203.743L501.065 202.486L508.055 252.081Z" fill="#1E1E1E"/>
<path fill-rule="evenodd" clip-rule="evenodd" d="M476.545 257.219L490.547 255.607L491.576 264.548L468.734 267.178L468.177 262.339L460.642 208.881L469.554 207.625L476.545 257.219Z" fill="#1E1E1E"/>
<ellipse cx="570.166" cy="133.242" rx="7.22207" ry="6.79725" transform="rotate(15.9395 570.166 133.242)" fill="#1E1E1E"/>
<path d="M717.805 121.962C726.316 118.73 735.218 116.641 744.278 115.749L785.969 111.645L922.663 109.912L948.272 112.889L954.807 147.72L953.974 148.882C936.879 172.706 911.598 189.389 882.97 195.737V195.737L761.693 213.994C750.515 215.677 739.107 214.941 728.238 211.837L702.622 204.521L732.01 191.226L698.724 181.72L730.461 164.759L692.763 157.028L723.87 140.755L698.031 129.471L717.805 121.962Z" fill="#F9E9E0"/>
<path d="M971.818 113.976L954.807 147.721L948.272 112.89L971.818 113.976Z" fill="#1E1E1E"/>
<path d="M870.918 64.6362C871.849 71.7072 871.054 78.8985 868.602 85.5956V85.5956C863.481 99.5799 856.225 112.687 847.093 124.451L825.508 152.258L775.062 115.027L790.639 91.0132C797.585 80.3053 803.026 68.6934 806.809 56.5036L810.387 44.9738C811.342 41.8965 814.417 39.9921 817.597 40.508V40.508C819.887 40.8795 821.802 42.4488 822.616 44.6206L825.508 52.3347L828.272 44.4245C829.432 41.1026 832.713 39.004 836.216 39.3429V39.3429C839.935 39.7027 842.848 42.7019 843.099 46.4306L844.007 59.9189L846.674 50.8347C848.934 43.1374 858.717 40.8325 864.176 46.7113V46.7113L864.988 47.8386C866.717 50.2387 868.087 52.8783 869.055 55.674V55.674C869.788 57.7931 870.304 59.9808 870.597 62.2039L870.918 64.6362Z" fill="#F9E9E0"/>
<path fill-rule="evenodd" clip-rule="evenodd" d="M845.703 251.682L859.705 250.07L860.734 259.011L837.892 261.641L837.335 256.802L829.8 203.344L838.712 202.088L845.703 251.682Z" fill="#1E1E1E"/>
<path fill-rule="evenodd" clip-rule="evenodd" d="M814.192 256.821L828.194 255.209L829.223 264.15L806.382 266.78L805.825 261.941L798.29 208.483L807.202 207.227L814.192 256.821Z" fill="#1E1E1E"/>
<ellipse cx="907.813" cy="132.844" rx="7.22207" ry="6.79725" transform="rotate(15.9395 907.813 132.844)" fill="#1E1E1E"/>
</g>
<defs>
<clipPath id="clip0_293_158">
<rect width="1001" height="372" fill="white"/>
</clipPath>
</defs>
</svg>
