<svg width="1001" height="372" viewBox="0 0 1001 372" fill="none" xmlns="http://www.w3.org/2000/svg">
<g clip-path="url(#clip0_293_107)">
<rect width="1001" height="372" fill="#7EA3AC"/>
<path d="M249.651 289.293L248.922 251.678L220.655 245.984L221.452 287.156C221.709 300.431 209.488 320.91 205.572 308.223L204.566 256.235C200.248 234.976 168.378 228.53 144.174 235.577C122.846 241.788 108.563 263.577 104.648 285.444C102.058 299.917 102.288 329.869 102.727 343.036L134.425 340.573L133.953 316.209C133.709 303.559 134.024 290.186 140.935 279.588C146.629 270.855 153.507 268.413 160.491 269.487C178.43 272.244 184.595 294.077 184.946 312.222C185.018 315.929 185.948 319.627 187.965 322.736C198.287 338.644 210.079 342.999 220.916 341.689C243.265 338.987 250.086 311.8 249.651 289.293Z" fill="#027E4E"/>
<path d="M580.96 289.293L580.232 251.678L551.964 245.984L552.761 287.156C553.018 300.431 540.797 320.91 536.882 308.223L535.875 256.235C531.557 234.976 499.687 228.53 475.483 235.577C454.155 241.788 439.872 263.577 435.958 285.444C433.367 299.917 433.597 329.869 434.036 343.036L465.734 340.573L465.262 316.209C465.018 303.559 465.334 290.186 472.244 279.588C477.938 270.855 484.816 268.413 491.8 269.487C509.739 272.244 515.904 294.077 516.255 312.222C516.327 315.929 517.257 319.627 519.274 322.736C529.596 338.644 541.389 342.999 552.225 341.689C574.574 338.987 581.395 311.8 580.96 289.293Z" fill="#027E4E"/>
<path d="M912.269 289.293L911.541 251.678L883.273 245.984L884.07 287.156C884.327 300.431 872.106 320.91 868.191 308.223L867.184 256.235C862.866 234.976 830.996 228.53 806.792 235.577C785.464 241.788 771.181 263.577 767.267 285.444C764.676 299.917 764.906 329.869 765.345 343.036L797.043 340.573L796.572 316.209C796.327 303.559 796.643 290.186 803.553 279.588C809.247 270.855 816.125 268.413 823.109 269.487C841.048 272.244 847.213 294.077 847.564 312.222C847.636 315.929 848.566 319.627 850.584 322.736C860.905 338.644 872.698 342.999 883.534 341.689C905.883 338.987 912.704 311.8 912.269 289.293Z" fill="#027E4E"/>
<path d="M48.8604 122.383C57.3716 119.151 66.2736 117.061 75.3339 116.169L117.025 112.065L253.719 110.332L279.328 113.309L285.863 148.141L285.03 149.302C267.934 173.126 242.654 189.809 214.026 196.157V196.157L92.7489 214.414C81.5712 216.097 70.1626 215.361 59.2936 212.257L33.6776 204.941L63.066 191.647L29.7795 182.14L61.5165 165.179L23.8188 157.448L54.9257 141.175L29.0867 129.891L48.8604 122.383Z" fill="#F9E9E0"/>
<path d="M302.874 114.396L285.862 148.142L279.328 113.31L302.874 114.396Z" fill="#1E1E1E"/>
<path d="M144.263 44.4009C149.876 47.2655 154.712 51.4465 158.358 56.5866V56.5866C167.435 69.3843 174.071 83.7479 177.934 98.9551L181.927 114.678L122.658 135.123L119.168 125.967C114.411 113.486 107.787 101.798 99.5228 91.3042L92.6209 82.5396C90.6275 80.0082 90.8021 76.3955 93.0304 74.0682V74.0682C94.6344 72.3929 97.0129 71.7051 99.2635 72.2659L107.257 74.2575L102.309 67.4959C100.23 64.6562 100.362 60.7641 102.627 58.071V58.071C105.032 55.2109 109.154 54.512 112.368 56.4194L123.993 63.3192L118.023 55.9715C112.964 49.7456 116.612 40.3801 124.549 39.2168V39.2168L125.938 39.1869C128.896 39.1232 131.847 39.4914 134.698 40.2798V40.2798C136.859 40.8773 138.955 41.6919 140.952 42.7112L144.263 44.4009Z" fill="#F9E9E0"/>
<path fill-rule="evenodd" clip-rule="evenodd" d="M176.758 252.103L190.761 250.491L191.79 259.432L168.948 262.061L168.391 257.223L160.856 203.765L169.768 202.508L176.758 252.103Z" fill="#1E1E1E"/>
<path fill-rule="evenodd" clip-rule="evenodd" d="M145.248 257.241L159.25 255.629L160.279 264.57L137.438 267.2L136.881 262.361L129.346 208.903L138.258 207.647L145.248 257.241Z" fill="#1E1E1E"/>
<ellipse cx="238.869" cy="133.264" rx="7.22207" ry="6.79725" transform="rotate(15.9395 238.869 133.264)" fill="#1E1E1E"/>
<path d="M380.157 122.361C388.668 119.129 397.57 117.04 406.631 116.148L448.322 112.043L585.016 110.311L610.625 113.287L617.16 148.119L616.326 149.28C599.231 173.104 573.95 189.787 545.323 196.135V196.135L424.046 214.392C412.868 216.075 401.459 215.339 390.59 212.235L364.974 204.919L394.363 191.625L361.076 182.118L392.813 165.157L355.115 157.427L386.222 141.153L360.383 129.869L380.157 122.361Z" fill="#F9E9E0"/>
<path d="M634.171 114.374L617.159 148.12L610.624 113.288L634.171 114.374Z" fill="#1E1E1E"/>
<path d="M494.305 50.4531C498.542 55.1181 501.586 60.7396 503.178 66.837V66.837C507.141 82.0184 508.267 97.8009 506.5 113.391L504.673 129.51L442.004 127.666L441.978 117.867C441.944 104.51 439.883 91.2351 435.866 78.4961L432.511 67.8566C431.542 64.7837 432.983 61.4664 435.891 60.0779V60.0779C437.984 59.0783 440.452 59.2765 442.358 60.5971L449.131 65.2879L446.894 57.2128C445.955 53.8216 447.455 50.2276 450.526 48.51V48.51C453.787 46.6858 457.89 47.4903 460.221 50.4112L468.654 60.9775L465.669 51.9927C463.139 44.3797 469.865 36.9104 477.701 38.6303V38.6303L479.01 39.0937C481.799 40.0805 484.429 41.4688 486.817 43.2148V43.2148C488.627 44.5383 490.299 46.0414 491.806 47.7013L494.305 50.4531Z" fill="#F9E9E0"/>
<path fill-rule="evenodd" clip-rule="evenodd" d="M508.055 252.081L522.057 250.469L523.087 259.41L500.245 262.039L499.688 257.201L492.153 203.743L501.065 202.486L508.055 252.081Z" fill="#1E1E1E"/>
<path fill-rule="evenodd" clip-rule="evenodd" d="M476.545 257.219L490.547 255.607L491.576 264.548L468.734 267.178L468.177 262.339L460.642 208.881L469.554 207.625L476.545 257.219Z" fill="#1E1E1E"/>
<ellipse cx="570.166" cy="133.242" rx="7.22207" ry="6.79725" transform="rotate(15.9395 570.166 133.242)" fill="#1E1E1E"/>
<path d="M717.805 121.962C726.316 118.73 735.218 116.641 744.278 115.749L785.969 111.645L922.663 109.912L948.272 112.889L954.807 147.72L953.974 148.882C936.879 172.706 911.598 189.389 882.97 195.737V195.737L761.693 213.994C750.515 215.677 739.107 214.941 728.238 211.837L702.622 204.521L732.01 191.226L698.724 181.72L730.461 164.759L692.763 157.028L723.87 140.755L698.031 129.471L717.805 121.962Z" fill="#F9E9E0"/>
<path d="M971.818 113.976L954.807 147.721L948.272 112.89L971.818 113.976Z" fill="#1E1E1E"/>
<path d="M870.918 64.6362C871.849 71.7072 871.054 78.8985 868.602 85.5956V85.5956C863.481 99.5799 856.225 112.687 847.093 124.451L825.508 152.258L775.062 115.027L790.639 91.0132C797.585 80.3053 803.026 68.6934 806.809 56.5036L810.387 44.9738C811.342 41.8965 814.417 39.9921 817.597 40.508V40.508C819.887 40.8795 821.802 42.4488 822.616 44.6206L825.508 52.3347L828.272 44.4245C829.432 41.1026 832.713 39.004 836.216 39.3429V39.3429C839.935 39.7027 842.848 42.7019 843.099 46.4306L844.007 59.9189L846.674 50.8347C848.934 43.1374 858.717 40.8325 864.176 46.7113V46.7113L864.988 47.8386C866.717 50.2387 868.087 52.8783 869.055 55.674V55.674C869.788 57.7931 870.304 59.9808 870.597 62.2039L870.918 64.6362Z" fill="#F9E9E0"/>
<path fill-rule="evenodd" clip-rule="evenodd" d="M845.703 251.682L859.705 250.07L860.734 259.011L837.892 261.641L837.335 256.802L829.8 203.344L838.712 202.088L845.703 251.682Z" fill="#1E1E1E"/>
<path fill-rule="evenodd" clip-rule="evenodd" d="M814.192 256.821L828.194 255.209L829.223 264.15L806.382 266.78L805.825 261.941L798.29 208.483L807.202 207.227L814.192 256.821Z" fill="#1E1E1E"/>
<ellipse cx="907.813" cy="132.844" rx="7.22207" ry="6.79725" transform="rotate(15.9395 907.813 132.844)" fill="#1E1E1E"/>
</g>
<defs>
<clipPath id="clip0_293_107">
<rect width="1001" height="372" fill="white"/>
</clipPath>
</defs>
</svg>
