<svg width="1001" height="372" viewBox="0 0 1001 372" fill="none" xmlns="http://www.w3.org/2000/svg">
<g clip-path="url(#clip0_287_4)">
<rect width="1001" height="372" fill="#7EA3AC"/>
<path d="M232.782 312.132L232.931 229.624L165.148 231.368C153.983 230.531 138.193 233.635 131.001 238.576L93.7167 257.902L57.9362 260.263L60.7094 297.08L100.539 299.852C112.937 305.019 126.06 309.645 138.663 314.291C140.558 314.989 142.536 315.822 144.574 316.837C156.523 322.792 207.442 316.632 232.782 312.132Z" fill="#F4739C"/>
<path d="M561.784 312.132L561.933 229.624L494.15 231.368C482.985 230.531 467.195 233.635 460.003 238.576L422.718 257.902L386.938 260.263L389.711 297.08L429.54 299.852C441.939 305.019 455.061 309.645 467.665 314.291C469.559 314.989 471.538 315.822 473.575 316.837C485.525 322.792 536.444 316.632 561.784 312.132Z" fill="#F4739C"/>
<path d="M898.106 312.132L898.255 229.624L830.472 231.368C819.307 230.531 803.517 233.635 796.325 238.576L759.04 257.902L723.26 260.263L726.033 297.08L765.862 299.852C778.261 305.019 791.383 309.645 803.987 314.291C805.881 314.989 807.86 315.822 809.897 316.837C821.847 322.792 872.766 316.632 898.106 312.132Z" fill="#F4739C"/>
<path d="M48.8604 122.383C57.3716 119.151 66.2736 117.061 75.3339 116.169L117.025 112.065L253.719 110.332L279.328 113.309L285.863 148.141L285.03 149.302C267.934 173.126 242.654 189.809 214.026 196.157V196.157L92.7489 214.414C81.5712 216.097 70.1626 215.361 59.2936 212.257L33.6776 204.941L63.066 191.647L29.7795 182.14L61.5165 165.179L23.8188 157.448L54.9257 141.175L29.0867 129.891L48.8604 122.383Z" fill="#F9E9E0"/>
<path d="M302.874 114.396L285.862 148.142L279.328 113.31L302.874 114.396Z" fill="#1E1E1E"/>
<path d="M144.263 44.4009C149.876 47.2654 154.712 51.4464 158.358 56.5865V56.5865C167.435 69.3843 174.071 83.7478 177.934 98.9551L181.927 114.678L122.658 135.123L119.168 125.967C114.411 113.486 107.787 101.798 99.5228 91.3041L92.6209 82.5395C90.6275 80.0082 90.8021 76.3954 93.0304 74.0682V74.0682C94.6344 72.3928 97.0129 71.7051 99.2635 72.2658L107.257 74.2574L102.309 67.4958C100.23 64.6562 100.362 60.764 102.627 58.071V58.071C105.032 55.2109 109.154 54.512 112.368 56.4193L123.993 63.3191L118.023 55.9714C112.964 49.7455 116.612 40.3801 124.549 39.2168V39.2168L125.938 39.1869C128.896 39.1232 131.847 39.4913 134.698 40.2797V40.2797C136.859 40.8773 138.955 41.6919 140.952 42.7111L144.263 44.4009Z" fill="#F9E9E0"/>
<path fill-rule="evenodd" clip-rule="evenodd" d="M176.758 252.103L190.761 250.491L191.79 259.432L168.948 262.061L168.391 257.223L160.856 203.765L169.768 202.508L176.758 252.103Z" fill="#1E1E1E"/>
<path fill-rule="evenodd" clip-rule="evenodd" d="M145.248 257.241L159.25 255.629L160.279 264.57L137.438 267.2L136.881 262.361L129.346 208.903L138.258 207.647L145.248 257.241Z" fill="#1E1E1E"/>
<ellipse cx="238.869" cy="133.264" rx="7.22207" ry="6.79725" transform="rotate(15.9395 238.869 133.264)" fill="#1E1E1E"/>
<path d="M380.157 122.361C388.668 119.129 397.57 117.04 406.631 116.148L448.322 112.043L585.016 110.311L610.625 113.287L617.16 148.119L616.326 149.28C599.231 173.104 573.95 189.787 545.323 196.135V196.135L424.046 214.392C412.868 216.075 401.459 215.339 390.59 212.235L364.974 204.919L394.363 191.625L361.076 182.118L392.813 165.157L355.115 157.427L386.222 141.153L360.383 129.869L380.157 122.361Z" fill="#F9E9E0"/>
<path d="M634.171 114.374L617.159 148.12L610.624 113.288L634.171 114.374Z" fill="#1E1E1E"/>
<path d="M494.305 50.4532C498.542 55.1182 501.586 60.7396 503.178 66.8371V66.8371C507.141 82.0184 508.267 97.8009 506.5 113.391L504.673 129.51L442.004 127.666L441.978 117.867C441.944 104.51 439.883 91.2352 435.866 78.4961L432.511 67.8567C431.542 64.7838 432.983 61.4665 435.891 60.0779V60.0779C437.984 59.0784 440.452 59.2765 442.358 60.5972L449.131 65.288L446.894 57.2129C445.955 53.8217 447.455 50.2277 450.526 48.51V48.51C453.787 46.6858 457.89 47.4904 460.221 50.4113L468.654 60.9775L465.669 51.9928C463.139 44.3797 469.865 36.9105 477.701 38.6304V38.6304L479.01 39.0938C481.799 40.0805 484.429 41.4688 486.817 43.2149V43.2149C488.627 44.5384 490.299 46.0415 491.806 47.7014L494.305 50.4532Z" fill="#F9E9E0"/>
<path fill-rule="evenodd" clip-rule="evenodd" d="M508.055 252.081L522.057 250.469L523.087 259.41L500.245 262.039L499.688 257.201L492.153 203.743L501.065 202.487L508.055 252.081Z" fill="#1E1E1E"/>
<path fill-rule="evenodd" clip-rule="evenodd" d="M476.545 257.219L490.547 255.607L491.576 264.548L468.734 267.178L468.177 262.339L460.642 208.881L469.554 207.625L476.545 257.219Z" fill="#1E1E1E"/>
<ellipse cx="570.166" cy="133.242" rx="7.22207" ry="6.79725" transform="rotate(15.9395 570.166 133.242)" fill="#1E1E1E"/>
<path d="M717.805 121.962C726.316 118.73 735.218 116.641 744.278 115.749L785.969 111.645L922.663 109.912L948.272 112.889L954.807 147.72L953.974 148.882C936.879 172.706 911.598 189.389 882.97 195.737V195.737L761.693 213.994C750.515 215.677 739.107 214.941 728.238 211.837L702.622 204.521L732.01 191.226L698.724 181.72L730.461 164.759L692.763 157.028L723.87 140.755L698.031 129.471L717.805 121.962Z" fill="#F9E9E0"/>
<path d="M971.818 113.976L954.807 147.721L948.272 112.89L971.818 113.976Z" fill="#1E1E1E"/>
<path d="M870.918 64.6363C871.849 71.7073 871.054 78.8986 868.602 85.5957V85.5957C863.481 99.58 856.225 112.687 847.093 124.451L825.508 152.258L775.062 115.027L790.639 91.0133C797.585 80.3054 803.026 68.6935 806.809 56.5037L810.387 44.9739C811.342 41.8967 814.417 39.9922 817.597 40.5082V40.5082C819.887 40.8796 821.802 42.4489 822.616 44.6207L825.508 52.3348L828.272 44.4247C829.432 41.1027 832.713 39.0041 836.216 39.343V39.343C839.935 39.7028 842.848 42.7021 843.099 46.4308L844.007 59.9191L846.674 50.8348C848.934 43.1375 858.717 40.8326 864.176 46.7114V46.7114L864.988 47.8387C866.717 50.2388 868.087 52.8785 869.055 55.6742V55.6742C869.788 57.7932 870.304 59.9809 870.597 62.204L870.918 64.6363Z" fill="#F9E9E0"/>
<path fill-rule="evenodd" clip-rule="evenodd" d="M845.703 251.682L859.705 250.071L860.734 259.012L837.892 261.641L837.335 256.802L829.8 203.344L838.712 202.088L845.703 251.682Z" fill="#1E1E1E"/>
<path fill-rule="evenodd" clip-rule="evenodd" d="M814.192 256.821L828.194 255.209L829.223 264.15L806.382 266.78L805.825 261.941L798.29 208.483L807.202 207.227L814.192 256.821Z" fill="#1E1E1E"/>
<ellipse cx="907.813" cy="132.844" rx="7.22207" ry="6.79725" transform="rotate(15.9395 907.813 132.844)" fill="#1E1E1E"/>
</g>
<defs>
<clipPath id="clip0_287_4">
<rect width="1001" height="372" fill="white"/>
</clipPath>
</defs>
</svg>
