<svg width="186" height="30" viewBox="0 0 186 30" fill="none" xmlns="http://www.w3.org/2000/svg">
<path d="M6.37189 30H0.533891V0.599997H33.0419V30H27.2039V5.514H6.37189V30ZM52.3701 30H47.2041V13.074H37.3341V8.748H62.2821V13.074H52.3701V30ZM65.981 30V8.748H70.979V20.508C70.979 21.908 70.909 23.084 70.769 24.036C70.657 24.988 70.461 26.038 70.181 27.186H70.811L85.175 8.748H93.239V30H88.283V18.24C88.283 16.812 88.339 15.622 88.451 14.67C88.591 13.69 88.787 12.654 89.039 11.562H88.451L74.087 30H65.981ZM118.854 8.748H124.02V30H118.854V22.356C117.65 23.14 116.362 23.714 114.99 24.078C113.646 24.442 111.98 24.624 109.992 24.624C105.904 24.624 102.922 23.742 101.046 21.978C99.1698 20.214 98.2318 17.47 98.2318 13.746V8.748H103.398V13.452C103.398 15.832 103.986 17.568 105.162 18.66C106.366 19.724 108.354 20.256 111.126 20.256C112.806 20.256 114.262 20.06 115.494 19.668C116.726 19.276 117.846 18.674 118.854 17.862V8.748ZM141.761 18.912L155.537 30H148.229L135.419 19.29V30H130.253V8.748H135.419V18.618L147.935 8.748H155.117L141.761 18.912ZM158.635 30V8.748H163.633V20.508C163.633 21.908 163.563 23.084 163.423 24.036C163.311 24.988 163.115 26.038 162.835 27.186H163.465L177.829 8.748H185.893V30H180.937V18.24C180.937 16.812 180.993 15.622 181.105 14.67C181.245 13.69 181.441 12.654 181.693 11.562H181.105L166.741 30H158.635Z" fill="#F9E9E0"/>
</svg>
