<svg width="327" height="29" viewBox="0 0 327 29" fill="none" xmlns="http://www.w3.org/2000/svg">
<path d="M22.8279 8.98V0.747997H27.9939V22H22.8279V13.306H6.11189V22H0.94589V0.747997H6.11189V8.98H22.8279ZM47.6076 22.504C44.4996 22.504 41.8396 22.014 39.6276 21.034C37.4436 20.054 35.7916 18.724 34.6716 17.044C33.5516 15.364 32.9916 13.474 32.9916 11.374C32.9916 9.274 33.5516 7.384 34.6716 5.704C35.7916 3.996 37.4436 2.652 39.6276 1.672C41.8396 0.691997 44.4996 0.201996 47.6076 0.201996C50.7156 0.201996 53.3616 0.691997 55.5456 1.672C57.7576 2.652 59.4236 3.996 60.5436 5.704C61.6636 7.384 62.2236 9.274 62.2236 11.374C62.2236 13.474 61.6636 15.364 60.5436 17.044C59.4236 18.724 57.7576 20.054 55.5456 21.034C53.3616 22.014 50.7156 22.504 47.6076 22.504ZM47.6076 18.346C49.6236 18.346 51.3456 18.038 52.7736 17.422C54.2016 16.806 55.2656 15.98 55.9656 14.944C56.6936 13.88 57.0576 12.69 57.0576 11.374C57.0576 10.058 56.6936 8.882 55.9656 7.846C55.2656 6.782 54.2016 5.942 52.7736 5.326C51.3456 4.71 49.6236 4.402 47.6076 4.402C45.5916 4.402 43.8696 4.71 42.4416 5.326C41.0136 5.942 39.9356 6.782 39.2076 7.846C38.5076 8.882 38.1576 10.058 38.1576 11.374C38.1576 12.69 38.5076 13.88 39.2076 14.944C39.9356 15.98 41.0136 16.806 42.4416 17.422C43.8696 18.038 45.5916 18.346 47.6076 18.346ZM80.2471 22.504C77.2511 22.504 74.6751 22.014 72.5191 21.034C70.3911 20.054 68.7671 18.724 67.6471 17.044C66.5551 15.364 66.0091 13.474 66.0091 11.374C66.0091 9.274 66.5551 7.384 67.6471 5.704C68.7671 3.996 70.3911 2.652 72.5191 1.672C74.6751 0.691997 77.2511 0.201996 80.2471 0.201996C82.9631 0.201996 85.3431 0.607997 87.3871 1.42C89.4591 2.232 91.0831 3.352 92.2591 4.78C93.4631 6.208 94.1911 7.832 94.4431 9.652H89.2351C88.9271 8.168 88.0031 6.922 86.4631 5.914C84.9231 4.906 82.8511 4.402 80.2471 4.402C78.3431 4.402 76.7051 4.71 75.3331 5.326C73.9611 5.942 72.9251 6.782 72.2251 7.846C71.5251 8.91 71.1751 10.086 71.1751 11.374C71.1751 12.662 71.5251 13.838 72.2251 14.902C72.9251 15.966 73.9611 16.806 75.3331 17.422C76.7051 18.038 78.3431 18.346 80.2471 18.346C82.8511 18.346 84.9231 17.842 86.4631 16.834C88.0031 15.826 88.9271 14.58 89.2351 13.096H94.4431C94.1911 14.916 93.4631 16.54 92.2591 17.968C91.0831 19.368 89.4591 20.474 87.3871 21.286C85.3431 22.098 82.9631 22.504 80.2471 22.504ZM99.0142 22V0.747997H104.012V12.508C104.012 13.908 103.942 15.084 103.802 16.036C103.69 16.988 103.494 18.038 103.214 19.186H103.844L118.208 0.747997H126.272V22H121.316V10.24C121.316 8.812 121.372 7.622 121.484 6.67C121.624 5.69 121.82 4.654 122.072 3.562H121.484L107.12 22H99.0142ZM132.945 22.504C131.741 22.504 130.747 22.35 129.963 22.042V17.632C130.523 17.828 131.069 17.926 131.601 17.926C132.749 17.926 133.589 17.59 134.121 16.918C134.681 16.246 135.045 15.266 135.213 13.978L136.725 0.747997H158.733V22H153.567V5.074H141.219L140.085 15.154C139.805 17.562 139.063 19.396 137.859 20.656C136.655 21.888 135.017 22.504 132.945 22.504ZM180.171 7.006C183.167 7.006 185.421 7.664 186.933 8.98C188.445 10.296 189.201 12.144 189.201 14.524C189.201 16.876 188.445 18.71 186.933 20.026C185.421 21.342 183.167 22 180.171 22H164.967V0.747997H170.133V7.006H180.171ZM179.793 17.968C181.165 17.968 182.215 17.66 182.943 17.044C183.671 16.4 184.035 15.56 184.035 14.524C184.035 13.46 183.671 12.62 182.943 12.004C182.215 11.36 181.165 11.038 179.793 11.038H169.881V17.968H179.793ZM229.297 0.747997V17.716H233.245V28.006H228.289V22H193.555V0.747997H198.721V17.716H208.927V0.747997H213.925V17.716H224.131V0.747997H229.297ZM237.114 22V0.747997H242.112V12.508C242.112 13.908 242.042 15.084 241.902 16.036C241.79 16.988 241.594 18.038 241.314 19.186H241.944L256.308 0.747997H264.372V22H259.416V10.24C259.416 8.812 259.472 7.622 259.584 6.67C259.724 5.69 259.92 4.654 260.172 3.562H259.584L245.22 22H237.114ZM282.091 10.912L295.867 22H288.559L275.749 11.29V22H270.583V0.747997H275.749V10.618L288.265 0.747997H295.447L282.091 10.912ZM298.965 22V0.747997H303.963V12.508C303.963 13.908 303.893 15.084 303.753 16.036C303.641 16.988 303.445 18.038 303.165 19.186H303.795L318.159 0.747997H326.223V22H321.267V10.24C321.267 8.812 321.323 7.622 321.435 6.67C321.575 5.69 321.771 4.654 322.023 3.562H321.435L307.071 22H298.965Z" fill="#F9E9E0"/>
</svg>
