<svg width="385" height="31" viewBox="0 0 385 31" fill="none" xmlns="http://www.w3.org/2000/svg">
<path d="M15.3439 22.504C12.2359 22.504 9.57589 22.014 7.36389 21.034C5.17989 20.054 3.52789 18.724 2.40789 17.044C1.28789 15.364 0.727891 13.474 0.727891 11.374C0.727891 9.274 1.28789 7.384 2.40789 5.704C3.52789 3.996 5.17989 2.652 7.36389 1.672C9.57589 0.691998 12.2359 0.201998 15.3439 0.201998C18.4519 0.201998 21.0979 0.691998 23.2819 1.672C25.4939 2.652 27.1599 3.996 28.2799 5.704C29.3999 7.384 29.9599 9.274 29.9599 11.374C29.9599 13.474 29.3999 15.364 28.2799 17.044C27.1599 18.724 25.4939 20.054 23.2819 21.034C21.0979 22.014 18.4519 22.504 15.3439 22.504ZM15.3439 18.346C17.3599 18.346 19.0819 18.038 20.5099 17.422C21.9379 16.806 23.0019 15.98 23.7019 14.944C24.4299 13.88 24.7939 12.69 24.7939 11.374C24.7939 10.058 24.4299 8.882 23.7019 7.846C23.0019 6.782 21.9379 5.942 20.5099 5.326C19.0819 4.71 17.3599 4.402 15.3439 4.402C13.3279 4.402 11.6059 4.71 10.1779 5.326C8.74989 5.942 7.67189 6.782 6.94389 7.846C6.24389 8.882 5.89389 10.058 5.89389 11.374C5.89389 12.69 6.24389 13.88 6.94389 14.944C7.67189 15.98 8.74989 16.806 10.1779 17.422C11.6059 18.038 13.3279 18.346 15.3439 18.346ZM47.9835 22.504C44.9875 22.504 42.4115 22.014 40.2555 21.034C38.1275 20.054 36.5035 18.724 35.3835 17.044C34.2915 15.364 33.7455 13.474 33.7455 11.374C33.7455 9.274 34.2915 7.384 35.3835 5.704C36.5035 3.996 38.1275 2.652 40.2555 1.672C42.4115 0.691998 44.9875 0.201998 47.9835 0.201998C50.6995 0.201998 53.0795 0.607998 55.1235 1.42C57.1955 2.232 58.8195 3.352 59.9955 4.78C61.1995 6.208 61.9275 7.832 62.1795 9.652H56.9715C56.6635 8.168 55.7395 6.922 54.1995 5.914C52.6595 4.906 50.5875 4.402 47.9835 4.402C46.0795 4.402 44.4415 4.71 43.0695 5.326C41.6975 5.942 40.6615 6.782 39.9615 7.846C39.2615 8.91 38.9115 10.086 38.9115 11.374C38.9115 12.662 39.2615 13.838 39.9615 14.902C40.6615 15.966 41.6975 16.806 43.0695 17.422C44.4415 18.038 46.0795 18.346 47.9835 18.346C50.5875 18.346 52.6595 17.842 54.1995 16.834C55.7395 15.826 56.6635 14.58 56.9715 13.096H62.1795C61.9275 14.916 61.1995 16.54 59.9955 17.968C58.8195 19.368 57.1955 20.474 55.1235 21.286C53.0795 22.098 50.6995 22.504 47.9835 22.504ZM85.7543 0.747998H91.8023L80.1263 22.882C78.5863 25.822 76.9623 27.908 75.2543 29.14C73.5743 30.372 71.4883 30.988 68.9963 30.988C68.2403 30.988 67.5683 30.932 66.9803 30.82C66.3923 30.736 65.7623 30.568 65.0903 30.316V25.99C66.1543 26.41 67.2463 26.62 68.3663 26.62C69.8783 26.62 71.0963 26.326 72.0203 25.738C72.9443 25.15 73.8123 24.156 74.6243 22.756L74.8343 22.378L63.4103 0.747998H69.4583L76.3043 14.776C76.9483 16.288 77.2703 17.534 77.2703 18.514V18.598H77.9003V18.514C77.9003 17.45 78.2083 16.204 78.8243 14.776L85.7543 0.747998ZM131.245 0.747998V17.716H135.193V28.006H130.237V22H95.5025V0.747998H100.669V17.716H110.875V0.747998H115.873V17.716H126.079V0.747998H131.245ZM165.793 11.416C165.793 11.864 165.765 12.424 165.709 13.096H142.105C142.497 14.776 143.491 16.12 145.087 17.128C146.683 18.136 148.811 18.64 151.471 18.64C155.615 18.64 158.527 17.492 160.207 15.196H165.289C164.841 16.372 164.071 17.52 162.979 18.64C161.915 19.732 160.403 20.656 158.443 21.412C156.511 22.14 154.145 22.504 151.345 22.504C148.321 22.504 145.731 22.014 143.575 21.034C141.419 20.054 139.781 18.724 138.661 17.044C137.569 15.364 137.023 13.474 137.023 11.374C137.023 9.274 137.583 7.384 138.703 5.704C139.823 3.996 141.461 2.652 143.617 1.672C145.773 0.691998 148.377 0.201998 151.429 0.201998C154.481 0.201998 157.085 0.691998 159.241 1.672C161.397 2.652 163.021 3.996 164.113 5.704C165.233 7.412 165.793 9.316 165.793 11.416ZM151.429 4.108C148.741 4.108 146.599 4.626 145.003 5.662C143.407 6.698 142.427 8.084 142.063 9.82H160.753C160.389 8.084 159.409 6.698 157.813 5.662C156.217 4.626 154.089 4.108 151.429 4.108ZM183.827 22.504C180.831 22.504 178.255 22.014 176.099 21.034C173.971 20.054 172.347 18.724 171.227 17.044C170.135 15.364 169.589 13.474 169.589 11.374C169.589 9.274 170.135 7.384 171.227 5.704C172.347 3.996 173.971 2.652 176.099 1.672C178.255 0.691998 180.831 0.201998 183.827 0.201998C186.543 0.201998 188.923 0.607998 190.967 1.42C193.039 2.232 194.663 3.352 195.839 4.78C197.043 6.208 197.771 7.832 198.023 9.652H192.815C192.507 8.168 191.583 6.922 190.043 5.914C188.503 4.906 186.431 4.402 183.827 4.402C181.923 4.402 180.285 4.71 178.913 5.326C177.541 5.942 176.505 6.782 175.805 7.846C175.105 8.91 174.755 10.086 174.755 11.374C174.755 12.662 175.105 13.838 175.805 14.902C176.505 15.966 177.541 16.806 178.913 17.422C180.285 18.038 181.923 18.346 183.827 18.346C186.431 18.346 188.503 17.842 190.043 16.834C191.583 15.826 192.507 14.58 192.815 13.096H198.023C197.771 14.916 197.043 16.54 195.839 17.968C194.663 19.368 193.039 20.474 190.967 21.286C188.923 22.098 186.543 22.504 183.827 22.504ZM214.495 22H209.329V5.074H199.459V0.747998H224.407V5.074H214.495V22ZM249.232 11.248C250.828 11.276 252.102 11.766 253.054 12.718C254.034 13.642 254.524 14.846 254.524 16.33C254.524 18.094 253.894 19.48 252.634 20.488C251.402 21.496 249.526 22 247.006 22H228.106V0.747998H246.586C248.882 0.747998 250.632 1.238 251.836 2.218C253.068 3.17 253.684 4.388 253.684 5.872C253.684 7.244 253.264 8.378 252.424 9.274C251.584 10.142 250.52 10.59 249.232 10.618V11.248ZM233.188 4.612V9.568H245.704C246.544 9.568 247.216 9.344 247.72 8.896C248.224 8.42 248.476 7.818 248.476 7.09C248.476 6.362 248.224 5.774 247.72 5.326C247.216 4.85 246.544 4.612 245.704 4.612H233.188ZM246.208 18.136C247.216 18.136 247.986 17.912 248.518 17.464C249.05 16.988 249.316 16.344 249.316 15.532C249.316 14.72 249.05 14.09 248.518 13.642C248.014 13.194 247.244 12.97 246.208 12.97H233.188V18.136H246.208ZM258.92 22.504C257.716 22.504 256.722 22.35 255.938 22.042V17.632C256.498 17.828 257.044 17.926 257.576 17.926C258.724 17.926 259.564 17.59 260.096 16.918C260.656 16.246 261.02 15.266 261.188 13.978L262.7 0.747998H284.708V22H279.542V5.074H267.194L266.06 15.154C265.78 17.562 265.038 19.396 263.834 20.656C262.63 21.888 260.992 22.504 258.92 22.504ZM314.714 0.747998V22H309.548V15.028H301.064C300 15.028 299.146 15.196 298.502 15.532C297.858 15.868 297.368 16.456 297.032 17.296L295.184 22H288.842L290.564 18.178C291.18 16.778 291.824 15.812 292.496 15.28C293.196 14.72 294.19 14.398 295.478 14.314V13.726C293.742 13.614 292.356 12.998 291.32 11.878C290.284 10.758 289.766 9.372 289.766 7.72C289.766 5.536 290.522 3.828 292.034 2.596C293.546 1.364 295.828 0.747998 298.88 0.747998H314.714ZM309.842 11.584V4.738H299.174C297.802 4.738 296.752 5.046 296.024 5.662C295.296 6.278 294.932 7.118 294.932 8.182C294.932 9.218 295.296 10.044 296.024 10.66C296.752 11.276 297.802 11.584 299.174 11.584H309.842ZM344.15 0.201998C347.034 0.201998 349.512 0.691998 351.584 1.672C353.656 2.624 355.224 3.954 356.288 5.662C357.352 7.342 357.884 9.246 357.884 11.374C357.884 13.502 357.352 15.42 356.288 17.128C355.224 18.808 353.656 20.124 351.584 21.076C349.512 22.028 347.034 22.504 344.15 22.504C340.286 22.504 337.178 21.678 334.826 20.026C332.474 18.346 331.06 16.12 330.584 13.348H326.09V22H320.924V0.747998H326.09V9.274H330.584C331.088 6.53 332.516 4.332 334.868 2.68C337.22 1.028 340.314 0.201998 344.15 0.201998ZM344.024 18.346C345.844 18.346 347.412 18.052 348.728 17.464C350.044 16.848 351.038 16.008 351.71 14.944C352.382 13.88 352.718 12.69 352.718 11.374C352.718 10.058 352.382 8.868 351.71 7.804C351.038 6.74 350.044 5.914 348.728 5.326C347.412 4.71 345.844 4.402 344.024 4.402C342.204 4.402 340.65 4.71 339.362 5.326C338.074 5.914 337.094 6.74 336.422 7.804C335.75 8.868 335.414 10.058 335.414 11.374C335.414 12.69 335.75 13.88 336.422 14.944C337.094 16.008 338.074 16.848 339.362 17.464C340.65 18.052 342.204 18.346 344.024 18.346ZM374.989 22H369.823V5.074H359.953V0.747998H384.901V5.074H374.989V22Z" fill="#F9E9E0"/>
</svg>
