<svg width="242" height="39" viewBox="0 0 242 39" fill="none" xmlns="http://www.w3.org/2000/svg">
<path d="M15.0499 30.504C10.4019 30.504 6.88789 29.538 4.50789 27.606C2.12789 25.674 0.937891 23.098 0.937891 19.878C0.937891 17.89 1.42789 16.126 2.40789 14.586C3.38789 13.018 4.82989 11.8 6.73389 10.932C8.63789 10.036 10.9479 9.588 13.6639 9.588C16.9959 9.588 19.5719 10.162 21.3919 11.31C23.2399 12.43 24.4159 13.886 24.9199 15.678H25.4239V15.048C25.4239 11.716 24.3179 9.112 22.1059 7.236C19.8939 5.332 16.6039 4.38 12.2359 4.38C7.97989 4.38 4.35389 5.01 1.35789 6.27V1.986C4.12989 0.725998 7.78389 0.0959986 12.3199 0.0959986C18.0319 0.0959986 22.4139 1.538 25.4659 4.422C28.5459 7.306 30.0859 11.352 30.0859 16.56C30.0859 19.332 29.5679 21.712 28.5319 23.7C27.4679 25.912 25.8019 27.606 23.5339 28.782C21.2659 29.93 18.4379 30.504 15.0499 30.504ZM15.3019 26.346C18.3539 26.346 20.6499 25.744 22.1899 24.54C23.7579 23.336 24.5419 21.81 24.5419 19.962C24.5419 18.058 23.7579 16.518 22.1899 15.342C20.6499 14.166 18.3539 13.578 15.3019 13.578C12.3059 13.578 10.0239 14.18 8.45589 15.384C6.88789 16.56 6.10389 18.086 6.10389 19.962C6.10389 21.81 6.88789 23.336 8.45589 24.54C10.0239 25.744 12.3059 26.346 15.3019 26.346ZM48.6896 30.504C45.5816 30.504 42.9216 30.014 40.7096 29.034C38.5256 28.054 36.8736 26.724 35.7536 25.044C34.6336 23.364 34.0736 21.474 34.0736 19.374C34.0736 17.274 34.6336 15.384 35.7536 13.704C36.8736 11.996 38.5256 10.652 40.7096 9.672C42.9216 8.692 45.5816 8.202 48.6896 8.202C51.7976 8.202 54.4436 8.692 56.6276 9.672C58.8396 10.652 60.5056 11.996 61.6256 13.704C62.7456 15.384 63.3056 17.274 63.3056 19.374C63.3056 21.474 62.7456 23.364 61.6256 25.044C60.5056 26.724 58.8396 28.054 56.6276 29.034C54.4436 30.014 51.7976 30.504 48.6896 30.504ZM48.6896 26.346C50.7056 26.346 52.4276 26.038 53.8556 25.422C55.2836 24.806 56.3476 23.98 57.0476 22.944C57.7756 21.88 58.1396 20.69 58.1396 19.374C58.1396 18.058 57.7756 16.882 57.0476 15.846C56.3476 14.782 55.2836 13.942 53.8556 13.326C52.4276 12.71 50.7056 12.402 48.6896 12.402C46.6736 12.402 44.9516 12.71 43.5236 13.326C42.0956 13.942 41.0176 14.782 40.2896 15.846C39.5896 16.882 39.2396 18.058 39.2396 19.374C39.2396 20.69 39.5896 21.88 40.2896 22.944C41.0176 23.98 42.0956 24.806 43.5236 25.422C44.9516 26.038 46.6736 26.346 48.6896 26.346ZM81.3292 30.504C78.3332 30.504 75.7572 30.014 73.6012 29.034C71.4732 28.054 69.8492 26.724 68.7292 25.044C67.6372 23.364 67.0912 21.474 67.0912 19.374C67.0912 17.274 67.6372 15.384 68.7292 13.704C69.8492 11.996 71.4732 10.652 73.6012 9.672C75.7572 8.692 78.3332 8.202 81.3292 8.202C84.0452 8.202 86.4252 8.608 88.4692 9.42C90.5412 10.232 92.1652 11.352 93.3412 12.78C94.5452 14.208 95.2732 15.832 95.5252 17.652H90.3172C90.0092 16.168 89.0852 14.922 87.5452 13.914C86.0052 12.906 83.9332 12.402 81.3292 12.402C79.4252 12.402 77.7872 12.71 76.4152 13.326C75.0432 13.942 74.0072 14.782 73.3072 15.846C72.6072 16.91 72.2572 18.086 72.2572 19.374C72.2572 20.662 72.6072 21.838 73.3072 22.902C74.0072 23.966 75.0432 24.806 76.4152 25.422C77.7872 26.038 79.4252 26.346 81.3292 26.346C83.9332 26.346 86.0052 25.842 87.5452 24.834C89.0852 23.826 90.0092 22.58 90.3172 21.096H95.5252C95.2732 22.916 94.5452 24.54 93.3412 25.968C92.1652 27.368 90.5412 28.474 88.4692 29.286C86.4252 30.098 84.0452 30.504 81.3292 30.504ZM111.997 30H106.831V13.074H96.961V8.748H121.909V13.074H111.997V30ZM134.191 30.504C130.803 30.504 128.311 29.93 126.715 28.782C125.119 27.634 124.321 26.08 124.321 24.12C124.321 22.16 125.119 20.606 126.715 19.458C128.311 18.31 130.803 17.736 134.191 17.736C136.767 17.736 138.909 17.988 140.617 18.492C142.325 18.968 143.991 19.668 145.615 20.592V18.744C145.615 16.784 144.901 15.23 143.473 14.082C142.045 12.906 139.945 12.318 137.173 12.318C134.653 12.318 132.707 12.738 131.335 13.578C129.991 14.39 129.165 15.398 128.857 16.602H123.691C123.999 14.166 125.273 12.164 127.513 10.596C129.753 9 132.987 8.202 137.215 8.202C141.695 8.202 145.069 9.168 147.337 11.1C149.605 13.004 150.739 15.608 150.739 18.912V24.372C150.739 25.604 151.299 26.22 152.419 26.22C152.867 26.22 153.301 26.164 153.721 26.052V30.126C152.965 30.378 152.125 30.504 151.201 30.504C149.661 30.504 148.471 30.14 147.631 29.412C146.819 28.684 146.413 27.704 146.413 26.472V26.262H145.783V26.304C145.783 26.976 145.335 27.634 144.439 28.278C143.543 28.922 142.213 29.454 140.449 29.874C138.685 30.294 136.599 30.504 134.191 30.504ZM136.039 26.808C139.651 26.808 142.843 26.038 145.615 24.498V23.154C144.131 22.482 142.661 21.964 141.205 21.6C139.749 21.236 138.027 21.054 136.039 21.054C133.603 21.054 131.909 21.306 130.957 21.81C130.005 22.314 129.529 23.014 129.529 23.91C129.529 24.834 130.005 25.548 130.957 26.052C131.909 26.556 133.603 26.808 136.039 26.808ZM178.562 19.248C180.158 19.276 181.432 19.766 182.384 20.718C183.364 21.642 183.854 22.846 183.854 24.33C183.854 26.094 183.224 27.48 181.964 28.488C180.732 29.496 178.856 30 176.336 30H157.436V8.748H175.916C178.212 8.748 179.962 9.238 181.166 10.218C182.398 11.17 183.014 12.388 183.014 13.872C183.014 15.244 182.594 16.378 181.754 17.274C180.914 18.142 179.85 18.59 178.562 18.618V19.248ZM162.518 12.612V17.568H175.034C175.874 17.568 176.546 17.344 177.05 16.896C177.554 16.42 177.806 15.818 177.806 15.09C177.806 14.362 177.554 13.774 177.05 13.326C176.546 12.85 175.874 12.612 175.034 12.612H162.518ZM175.538 26.136C176.546 26.136 177.316 25.912 177.848 25.464C178.38 24.988 178.646 24.344 178.646 23.532C178.646 22.72 178.38 22.09 177.848 21.642C177.344 21.194 176.574 20.97 175.538 20.97H162.518V26.136H175.538ZM199.706 18.912L213.482 30H206.174L193.364 19.29V30H188.198V8.748L193.364 8.748V18.618L205.88 8.748H213.062L199.706 18.912ZM235.584 8.748H241.632L229.956 30.882C228.416 33.822 226.792 35.908 225.084 37.14C223.404 38.372 221.318 38.988 218.826 38.988C218.07 38.988 217.398 38.932 216.81 38.82C216.222 38.736 215.592 38.568 214.92 38.316V33.99C215.984 34.41 217.076 34.62 218.196 34.62C219.708 34.62 220.926 34.326 221.85 33.738C222.774 33.15 223.642 32.156 224.454 30.756L224.664 30.378L213.24 8.748H219.288L226.134 22.776C226.778 24.288 227.1 25.534 227.1 26.514V26.598H227.73V26.514C227.73 25.45 228.038 24.204 228.654 22.776L235.584 8.748Z" fill="#F9E9E0"/>
</svg>
