<svg width="366" height="177" viewBox="0 0 366 177" fill="none" xmlns="http://www.w3.org/2000/svg">
<path fill-rule="evenodd" clip-rule="evenodd" d="M295.752 0.134277H69.752V75.1343H0.751953V176.134H365.752V75.1343H295.752V0.134277Z" fill="#F9E9E0"/>
<path d="M210.087 131.986C207.453 137.965 198.989 148.027 186.209 140.442C173.429 132.856 178.694 119.415 182.924 113.643C175.035 114.185 160.412 110.458 165.035 91.2219C160.975 96.4905 150.951 103.102 137.26 87.7394C138.794 99.9023 127.844 110.466 119.077 108.417C123.656 114.16 129.716 127.6 117.325 135.411C104.933 143.223 95.766 132.272 92.7312 125.82C98.5012 143.267 88.5705 155.408 66.0139 147.185C54.2478 140.729 58.9211 126.629 62.7286 120.387C67.2655 114.795 79.6177 108.053 92.7312 125.82C91.4585 118.115 94.394 104.405 115.139 107.644C109.735 105.722 104.805 100.163 102.583 89.6849C101.804 75.7923 127.588 67.5258 137.26 87.7394C131.07 74.8027 140.368 66.2158 146.551 63.4967C152.78 60.874 166.72 60.5861 172.655 80.4163C178.646 77.5172 186.679 79.644 193.088 82.7397C197.034 84.6453 200.078 88.1174 201.05 92.3897C202.561 99.0352 201.984 106.903 193.333 108.611C201.414 109.739 216.08 115.994 210.087 131.986Z" fill="#7EA3AC"/>
<path d="M296.059 98.8833L298.82 132.951L279.185 144.539C264.134 146.244 255.581 136.956 252.11 130.088C251.117 128.122 250.97 125.889 251.005 123.687C251.218 110.225 245.514 88.7371 220.357 89.5789C203.058 90.1577 194.096 84.0466 189.886 77.4462C186.137 71.5679 182.672 64.6769 176.426 61.5777L168.284 57.5375L175.38 36.302L194.403 46.1799C196.621 47.3319 198.167 49.408 199.253 51.6596C206.096 65.8554 226.023 65.0845 235.812 62.6816C242.225 63.2432 256.314 69.0563 261.362 87.8164C266.409 106.576 286.596 103.011 296.059 98.8833Z" fill="#7EA3AC"/>
<path fill-rule="evenodd" clip-rule="evenodd" d="M295.752 0.134277H69.752V75.1343H0.751953V176.134H365.752V75.1343H295.752V0.134277Z" fill="#F9E9E0"/>
<path d="M210.087 131.986C207.453 137.965 198.989 148.027 186.209 140.442C173.429 132.856 178.694 119.415 182.924 113.643C175.035 114.185 160.412 110.458 165.035 91.2219C160.975 96.4905 150.951 103.102 137.26 87.7394C138.794 99.9023 127.844 110.466 119.077 108.417C123.656 114.16 129.716 127.6 117.325 135.411C104.933 143.223 95.766 132.272 92.7312 125.82C98.5012 143.267 88.5705 155.408 66.0139 147.185C54.2478 140.729 58.9211 126.629 62.7286 120.387C67.2655 114.795 79.6177 108.053 92.7312 125.82C91.4585 118.115 94.394 104.405 115.139 107.644C109.735 105.722 104.805 100.163 102.583 89.6849C101.804 75.7923 127.588 67.5258 137.26 87.7394C131.07 74.8027 140.368 66.2158 146.551 63.4967C152.78 60.874 166.72 60.5861 172.655 80.4163C178.646 77.5172 186.679 79.644 193.088 82.7397C197.034 84.6453 200.078 88.1174 201.05 92.3897C202.561 99.0352 201.984 106.903 193.333 108.611C201.414 109.739 216.08 115.994 210.087 131.986Z" fill="#7EA3AC"/>
<path d="M296.059 98.8833L298.82 132.951L279.185 144.539C264.134 146.244 255.581 136.956 252.11 130.088C251.117 128.122 250.97 125.889 251.005 123.687C251.218 110.225 245.514 88.7371 220.357 89.5789C203.058 90.1577 194.096 84.0466 189.886 77.4462C186.137 71.5679 182.672 64.6769 176.426 61.5777L168.284 57.5375L175.38 36.302L194.403 46.1799C196.621 47.3319 198.167 49.408 199.253 51.6596C206.096 65.8554 226.023 65.0845 235.812 62.6816C242.225 63.2432 256.314 69.0563 261.362 87.8164C266.409 106.576 286.596 103.011 296.059 98.8833Z" fill="#7EA3AC"/>
</svg>
