<svg width="366" height="176" viewBox="0 0 366 176" fill="none" xmlns="http://www.w3.org/2000/svg">
<path d="M360.577 109.001L322.027 157.979L296.242 142.198C313.183 55.0702 260.515 80.8375 232.064 104.612L206.999 80.0099L256.751 29.3235L360.577 109.001Z" fill="#7EA3AC"/>
<path d="M8.77435 103.347C79.0775 99.5608 57.5298 60.9302 60.3511 31.7928C73.3712 80.0015 105.834 77.7921 138.767 78.9669C96.7628 91.1252 88.966 128.811 93.1286 156.02C83.6901 114.558 32.9597 103.628 8.77435 103.347Z" fill="#7EA3AC"/>
<path d="M165.192 6.57528L123.247 22.4882C132.002 23.3769 146.303 30.0091 133.467 49.4286C120.632 68.8481 138.06 83.7244 148.379 88.7351C125.957 110.579 147.151 128.102 160.551 134.133L175.122 128.606L211.769 114.703C230.195 88.7165 205.15 75.9548 190.325 72.8222C195.804 60.6392 199.166 35.4171 168.774 31.9926C154.571 29.7017 160.468 14.0932 165.192 6.57528Z" fill="#7EA3AC"/>
</svg>
