<svg width="586" height="255" viewBox="0 0 586 255" fill="none" xmlns="http://www.w3.org/2000/svg">
<path d="M211.094 246.824L180.336 231.919L180.311 209.119C186.478 195.284 198.821 192.626 206.501 193.12C208.699 193.261 210.697 194.268 212.578 195.415C224.07 202.428 245.481 208.415 257.519 186.309C265.797 171.108 275.61 166.485 283.434 166.206C290.402 165.958 298.098 166.468 303.937 162.658L311.55 157.692L326.249 174.581L308.086 185.961C305.968 187.289 303.394 187.568 300.903 187.361C285.198 186.055 275.753 203.618 272.857 213.273C269.119 218.515 256.961 227.707 238.234 222.539C219.507 217.37 212.338 236.575 211.094 246.824Z" fill="#7EA3AC"/>
<path d="M225.811 59.5471C207.726 67.3499 202.399 52.1222 201.996 43.5329L179.835 36.115C173.641 34.0419 167.018 33.6001 160.604 34.8321L123.49 41.9616L136.025 68.4162L168.932 68.305L107.156 118.763L121.718 126.636C125.32 134.769 135.215 150.085 145.989 146.281C156.763 142.477 178.631 164.438 188.218 175.895L220.96 102.589L226.043 124.969L257.81 120.673L248.679 83.4211C246.862 76.0058 242.193 69.6064 235.687 65.6115L225.811 59.5471Z" fill="#7EA3AC"/>
<path d="M0 195.898L44.4556 162.376L91.5652 128.184V175.785L117 152.767L116.138 163.855C115.093 177.287 115.382 190.79 117 204.166V227.184L85.3724 224.279L26.3195 227.184L54.6295 204.166L22.7807 201.261L0 195.898Z" fill="#7EA3AC"/>
<path d="M444.725 136.404C463.566 122.301 499.3 117.549 514.812 116.936C539.394 115.963 532.461 140.425 513.849 146.947C499.603 151.938 500.314 165.578 526.318 158.355C558.822 149.326 554.202 162.236 531.687 177.684C513.674 190.042 535.17 188.254 548.169 185.815C560.358 182.429 583.558 180.473 578.843 199.737C576.369 209.843 566.573 219.524 548.61 225.952C536.012 230.459 518.778 233.241 505.985 235.22C499.553 236.215 492.817 235.501 487.657 231.533C478.655 224.61 470.501 213.608 488.319 208.658C510.374 202.532 499.389 194.497 485.46 198.366C459.774 205.501 437.77 192.902 468.927 174.296C500.084 155.691 470.888 159.691 452.395 164.017C432.707 171.078 425.884 150.506 444.725 136.404Z" fill="#7EA3AC"/>
<path d="M445.039 205.691L454.06 181.64L433.867 168.498L421.784 200.713C417.887 211.1 402.079 223.232 402.954 212.172L418.212 171.494C421.407 153.714 398.813 138.916 377.903 136.841C359.292 134.995 341.475 147.455 331.615 163.347C325.138 173.786 316.076 197.115 312.354 207.474L337.727 215.341L344.878 196.277C348.591 186.379 352.962 176.092 361.598 169.995C368.714 164.971 374.807 165.197 379.9 168.185C392.978 175.861 391.029 194.716 385.703 208.914C384.616 211.814 384.197 214.972 384.804 218.01C387.265 230.316 392.678 237.279 399.206 240.798C419.021 251.482 437.133 226.769 445.039 205.691Z" fill="#7EA3AC"/>
<path d="M365.158 145.345L395.067 83.7943L343.828 60.6157C335.794 55.9589 322.883 52.5735 315.729 53.6655L280.911 54.6286L253.342 43.4694L242.116 71.9603L270.853 88.4148C278.245 96.7503 286.371 104.944 294.104 112.964C295.266 114.17 296.443 115.506 297.597 117C304.369 125.762 344.612 139.553 365.158 145.345Z" fill="#7EA3AC"/>
</svg>
