<svg width="626" height="279" viewBox="0 0 626 279" fill="none" xmlns="http://www.w3.org/2000/svg">
<path fill-rule="evenodd" clip-rule="evenodd" d="M180.838 0H445.838V72H554.838V146H625.838V279H0.837891V146H70.8379V72H180.838V0Z" fill="#F9E9E0"/>
<path d="M267.48 145.75L248.306 150.194L215.782 154.91L212.57 141.047L204.647 106.863L199.904 72.108C194.876 54.4165 212.063 48.5961 221.285 47.8973L220.741 31.2582L256.086 28.7102L259.555 43.6756C287.743 41.2591 288.213 64.2009 284.925 75.9738L276.751 117.872L267.48 145.75Z" fill="#7EA3AC"/>
<path d="M416.127 155.408L435.182 126.209C439.109 122.061 451.016 112.75 467.222 108.685C487.481 103.604 492.438 110.042 503.776 116.525C512.846 121.712 517.442 135.814 518.606 142.216L523.579 160.559C523.562 172.749 518.298 199.387 497.378 208.429C476.459 217.471 474.531 202.976 476.182 194.598C481.636 187.176 493.082 170.946 495.237 165.398C497.392 159.85 493.566 161.41 491.383 162.883C486.497 170.37 474.079 186.454 463.491 190.891C452.902 195.328 447.946 185.474 446.791 179.993C452.477 171.046 464.667 152.038 467.939 147.585C471.211 143.132 467.357 142.629 465.021 142.935L441.498 171.964C419.317 182.379 415.342 165.266 416.127 155.408Z" fill="#7EA3AC"/>
<path d="M277.838 182.994V162.471L333.653 182.994L283.542 133.498L296.171 123.438L340.579 176.153L326.727 121.024L340.579 117L349.134 174.115L379.69 123.438L394.764 138.73L356.468 180.982L405.356 162.471L409.838 182.994L353.616 193.859L394.764 222.027L386.616 235.306L349.134 199.895L343.838 251L333.653 243.757L340.579 199.895L307.171 235.306L298.616 222.027L333.653 193.859L277.838 182.994Z" fill="#7EA3AC"/>
<path d="M185.834 250.554L191.975 227.339L160.505 219.015C132.152 196.388 154.679 186.95 169.487 185.059L205.261 189.702L212.593 161.982L176.452 158.725C163.544 157.164 143.298 159.1 134.837 162.176C127.865 164.286 100.018 194.489 118.889 222.466C127.412 235.1 164.748 246.336 185.834 250.554Z" fill="#7EA3AC"/>
</svg>
