<svg width="527" height="256" viewBox="0 0 527 256" fill="none" xmlns="http://www.w3.org/2000/svg">
<path fill-rule="evenodd" clip-rule="evenodd" d="M163.781 7.67521H363.781V78.6752H444.781V153.446H526.781V255.556H0.78125V153.446H81.7812V78.6752H163.781V7.67521Z" fill="#F9E9E0"/>
<path d="M249.641 80.1496L283.477 49.4051L245.49 66.5366L245.289 22.2133L226.704 66.7172L214.321 26.1087L215.028 62.2075L178.886 63.1413L211.149 80.7913L155.862 108.746L211.861 101.253L182.454 149.813L231.422 115.968L235.914 162.008L246.592 111.342L287.861 146.168L259.299 98.6403L298.834 86.5849L249.641 80.1496Z" fill="#7EA3AC"/>
<path d="M318.063 150.095L324.109 145.359L321.892 153.022C321.214 155.367 321.065 157.833 321.456 160.242L321.667 161.537C322.316 165.535 324.706 169.039 328.191 171.103C330.391 172.406 332.738 173.483 335.278 173.781C335.353 173.79 335.429 173.798 335.505 173.807C342.187 174.55 348.079 170.748 352.5 165.683L361.597 155.262L372.196 137.366L377.483 128.44C379.001 125.876 379.659 122.894 379.36 119.929L378.72 113.568C378.433 110.713 377.184 108.041 375.18 105.989C372.764 103.515 369.44 102.138 365.982 102.176L361.556 102.225C358.989 101.994 348.35 108.257 343.634 112.392L348.341 94.3981C349.549 86.0276 345.287 80.8375 341.55 78.3158C339.828 77.1539 337.682 76.9836 335.621 77.2432C326.931 78.3376 318.839 82.2537 312.589 88.3902L309.022 91.8924L292 124.221L288.775 133.292C287.547 136.747 287.343 140.483 288.19 144.051L288.522 145.45C289.501 149.577 292.115 153.128 295.764 155.29C297.156 156.114 298.795 156.421 300.392 156.155L306.678 155.108C310.833 154.416 314.747 152.692 318.063 150.095Z" fill="#7EA3AC"/>
<path d="M165.772 229.61L171.912 206.395L140.442 198.071C112.089 175.444 134.616 166.006 149.424 164.115L185.198 168.758L192.531 141.038L156.39 137.781C143.482 136.22 123.235 138.156 114.774 141.232C107.802 143.342 79.9557 173.544 98.8268 201.521C107.349 214.156 144.686 225.392 165.772 229.61Z" fill="#7EA3AC"/>
<path d="M212.781 190.746L252.297 160.949L294.173 130.556V172.867L316.781 152.407L316.015 162.263C315.086 174.203 315.343 186.206 316.781 198.095V218.556L288.668 215.974L236.176 218.556L261.341 198.095L233.031 195.513L212.781 190.746Z" fill="#7EA3AC"/>
<path fill-rule="evenodd" clip-rule="evenodd" d="M163.781 7.67521H363.781V78.6752H444.781V153.446H526.781V255.556H0.78125V153.446H81.7812V78.6752H163.781V7.67521Z" fill="#F9E9E0"/>
<path d="M256.852 72.6678L290.688 41.9233L252.701 59.0547L252.5 14.7315L233.915 59.2354L221.532 18.6269L222.239 54.7257L186.097 55.6594L218.36 73.3094L163.073 101.264L219.072 93.7713L189.665 142.332L238.633 108.486L243.125 154.526L253.803 103.86L295.072 138.686L266.51 91.1584L306.045 79.1031L256.852 72.6678Z" fill="#7EA3AC"/>
<path d="M362.016 175.436L368.062 170.7L365.845 178.364C365.167 180.708 365.018 183.174 365.409 185.583L365.62 186.878C366.27 190.876 368.659 194.38 372.144 196.444C374.345 197.747 376.691 198.825 379.231 199.123C379.306 199.131 379.382 199.14 379.458 199.148C386.141 199.891 392.032 196.089 396.454 191.024L405.55 180.604L416.149 162.707L421.436 153.781C422.954 151.218 423.612 148.235 423.314 145.271L422.673 138.909C422.386 136.055 421.138 133.383 419.133 131.331C416.717 128.857 413.393 127.479 409.935 127.518L405.509 127.567C402.942 127.336 392.303 133.599 387.587 137.733L392.294 119.74C393.502 111.369 389.24 106.179 385.503 103.657C383.781 102.495 381.635 102.325 379.574 102.585C370.884 103.679 362.792 107.595 356.542 113.732L352.975 117.234L335.953 149.563L332.728 158.634C331.5 162.089 331.296 165.825 332.143 169.392L332.475 170.792C333.454 174.918 336.068 178.47 339.717 180.631C341.109 181.456 342.748 181.762 344.345 181.496L350.631 180.449C354.786 179.757 358.7 178.033 362.016 175.436Z" fill="#7EA3AC"/>
<path d="M165.772 229.61L171.912 206.395L140.442 198.071C112.089 175.444 134.616 166.006 149.424 164.115L185.198 168.758L192.531 141.038L156.39 137.781C143.482 136.22 123.235 138.156 114.774 141.232C107.802 143.342 79.9557 173.544 98.8268 201.521C107.349 214.156 144.686 225.392 165.772 229.61Z" fill="#7EA3AC"/>
<path d="M212.781 190.746L252.297 160.949L294.173 130.556V172.867L316.781 152.407L316.015 162.263C315.086 174.203 315.343 186.206 316.781 198.095V218.556L288.668 215.974L236.176 218.556L261.341 198.095L233.031 195.513L212.781 190.746Z" fill="#7EA3AC"/>
</svg>
