<svg width="154" height="88" viewBox="0 0 154 88" fill="none" xmlns="http://www.w3.org/2000/svg">
<path d="M151.612 69.792C148.978 75.7713 140.514 85.8335 127.735 78.248C114.955 70.6625 120.219 57.2215 124.449 51.4492C116.56 51.9907 101.938 48.2644 106.561 29.028C102.5 34.2965 92.4765 40.9079 78.7852 25.5454C80.3195 37.7083 69.369 48.2721 60.6023 46.2234C65.1812 51.9665 71.2411 65.4055 58.8499 73.2171C46.4587 81.0287 37.2914 70.0777 34.2566 63.6258C40.0265 81.073 30.0959 93.2144 7.53934 84.9914C-4.22685 78.5351 0.446518 64.4354 4.25397 58.1926C8.79088 52.6007 21.1431 45.8588 34.2566 63.6258C32.9839 55.9207 35.9194 42.2115 56.6643 45.4504C51.2599 43.5283 46.3301 37.9692 44.1085 27.4909C43.329 13.5983 69.113 5.33186 78.7852 25.5454C72.595 12.6087 81.8939 4.02178 88.0769 1.30276C94.3053 -1.31999 108.246 -1.60791 114.181 18.2223C120.171 15.3233 128.205 17.45 134.614 20.5457C138.559 22.4513 141.603 25.9234 142.575 30.1957C144.086 36.8412 143.509 44.7094 134.858 46.4175C142.94 47.5455 157.605 53.7996 151.612 69.792Z" fill="#027E4E"/>
</svg>
