<svg width="131" height="110" viewBox="0 0 131 110" fill="none" xmlns="http://www.w3.org/2000/svg">
<path d="M128.205 63.3522L130.966 97.42L111.332 109.008C96.2805 110.713 87.7278 101.425 84.2565 94.5564C83.263 92.5906 83.1167 90.3582 83.1515 88.1559C83.3641 74.6942 77.6609 53.2059 52.5031 54.0477C35.2042 54.6266 26.2421 48.5155 22.0323 41.9151C18.2831 36.0368 14.8182 29.1457 8.57271 26.0466L0.430638 22.0064L7.52697 0.77088L26.5493 10.6488C28.7676 11.8007 30.3138 13.8769 31.3992 16.1285C38.2421 30.3243 58.169 29.5534 67.958 27.1505C74.3716 27.7121 88.4608 33.5252 93.5082 52.2853C98.5556 71.0453 118.743 67.4799 128.205 63.3522Z" fill="#B55D69"/>
</svg>
