<svg width="93" height="97" viewBox="0 0 93 97" fill="none" xmlns="http://www.w3.org/2000/svg">
<path d="M30.7211 72.9976L36.7673 68.2617L34.5501 75.9252C33.8718 78.2697 33.723 80.7356 34.1144 83.1446L34.3249 84.4397C34.9746 88.4376 37.3644 91.9414 40.8494 94.0054C43.0497 95.3085 45.3959 96.3862 47.9357 96.6838C48.0111 96.6926 48.087 96.7013 48.1634 96.7098C54.8457 97.4524 60.7372 93.6504 65.1587 88.5853L74.2548 78.1652L84.8541 60.2688L90.1408 51.3425C91.6591 48.7789 92.3172 45.7966 92.0187 42.8321L91.3781 36.4704C91.0907 33.6162 89.8426 30.9443 87.8382 28.8922C85.4218 26.4183 82.0986 25.0405 78.6406 25.0788L74.2145 25.128C71.647 24.8968 61.0078 31.1603 56.2924 35.2946L60.9989 17.3009C62.207 8.93042 57.9454 3.74029 54.208 1.2186C52.4859 0.0567108 50.3405 -0.113613 48.2794 0.145961C39.5889 1.24045 31.4975 5.15647 25.2472 11.293L21.6802 14.7952L4.65814 47.1242L1.4331 56.1951C0.204807 59.6499 0.00156387 63.3861 0.847855 66.9537L1.17979 68.353C2.15871 72.4797 4.7728 76.0313 8.42201 78.1926C9.81445 79.0173 11.4534 79.3237 13.0497 79.0577L19.3361 78.0105C23.4907 77.3184 27.4053 75.5948 30.7211 72.9976Z" fill="#B10729"/>
</svg>
