<svg width="139" height="104" viewBox="0 0 139 104" fill="none" xmlns="http://www.w3.org/2000/svg">
<path d="M3.65295 47.2729L0.337436 76.1033L24.3618 84.4025L28.5088 48.342C29.8459 36.7149 42.9313 20.262 44.859 31.8058L39.6225 77.3403C40.8901 96.3556 67.7947 105.737 89.728 102.524C109.25 99.6637 124.308 82.3616 130.345 63.5774C134.311 51.2382 137.634 25.0456 138.799 13.4916L110.818 11.9142L108.364 33.2544C107.09 44.3337 105.241 55.9796 97.957 64.4248C91.9555 71.3835 85.6601 72.7079 79.6847 70.9484C64.3381 66.4294 61.5208 46.6317 63.3486 30.7384C63.7219 27.4919 63.3446 24.1524 61.9477 21.1982C55.8218 8.24303 47.752 2.57908 39.5115 1.14463C17.3334 -2.71597 6.22485 24.9087 3.65295 47.2729Z" fill="#F9E9E0"/>
</svg>
