<svg width="109" height="106" viewBox="0 0 109 106" fill="none" xmlns="http://www.w3.org/2000/svg">
<path d="M0.60983 49.4085L19.6644 20.2086C23.5918 16.0613 35.4984 6.75027 51.7049 2.68545C71.963 -2.39557 76.9203 4.04187 88.2582 10.5254C97.3284 15.7123 101.925 29.8139 103.089 36.2163L108.061 54.5593C108.044 66.7485 102.78 93.3874 81.8606 102.429C60.9411 111.471 59.0136 96.9756 60.6647 88.5977C66.1183 81.176 77.5642 64.9458 79.7193 59.3978C81.8743 53.8499 78.048 55.4097 75.8655 56.883C70.9797 64.3702 58.5611 80.4537 47.9729 84.8907C37.3847 89.3277 32.428 79.4744 31.2732 73.9931C36.9593 65.0457 49.1494 46.0376 52.4216 41.5846C55.6937 37.1316 51.8392 36.6294 49.503 36.9349L25.9806 65.9644C3.79916 76.3786 -0.175515 59.2664 0.60983 49.4085Z" fill="#B55D69"/>
</svg>
