<svg width="125" height="94" viewBox="0 0 125 94" fill="none" xmlns="http://www.w3.org/2000/svg">
<path d="M43.9234 93.0942C29.8874 93.0942 19.5634 90.7162 12.9514 85.9602C6.33941 81.2042 3.03341 74.7662 3.03341 66.6462C3.03341 58.5262 6.33941 52.0882 12.9514 47.3322C19.5634 42.5762 29.8874 40.1982 43.9234 40.1982C54.5954 40.1982 63.4694 41.2422 70.5454 43.3302C77.6214 45.3022 84.5234 48.2022 91.2514 52.0302V44.3742C91.2514 36.2542 88.2934 29.8162 82.3774 25.0602C76.4614 20.1882 67.7614 17.7522 56.2774 17.7522C45.8374 17.7522 37.7754 19.4922 32.0914 22.9722C26.5234 26.3362 23.1014 30.5122 21.8254 35.5002H0.423407C1.69941 25.4082 6.97741 17.1142 16.2574 10.6182C25.5374 4.00616 38.9354 0.700155 56.4514 0.700155C75.0114 0.700155 88.9894 4.70216 98.3854 12.7062C107.781 20.5942 112.479 31.3822 112.479 45.0702V67.6902C112.479 72.7942 114.799 75.3462 119.439 75.3462C121.295 75.3462 123.093 75.1142 124.833 74.6502V91.5282C121.701 92.5722 118.221 93.0942 114.393 93.0942C108.013 93.0942 103.083 91.5862 99.6034 88.5702C96.2394 85.5542 94.5574 81.4942 94.5574 76.3902V75.5202H91.9474V75.6942C91.9474 78.4782 90.0914 81.2042 86.3794 83.8722C82.6674 86.5402 77.1574 88.7442 69.8494 90.4842C62.5414 92.2242 53.8994 93.0942 43.9234 93.0942ZM51.5794 77.7822C66.5434 77.7822 79.7674 74.5922 91.2514 68.2122V62.6442C85.1034 59.8602 79.0134 57.7142 72.9814 56.2062C66.9494 54.6982 59.8154 53.9442 51.5794 53.9442C41.4874 53.9442 34.4694 54.9882 30.5254 57.0762C26.5814 59.1642 24.6094 62.0642 24.6094 65.7762C24.6094 69.6042 26.5814 72.5622 30.5254 74.6502C34.4694 76.7382 41.4874 77.7822 51.5794 77.7822Z" fill="#F9E9E0"/>
</svg>
