<svg width="119" height="127" viewBox="0 0 119 127" fill="none" xmlns="http://www.w3.org/2000/svg">
<path d="M93.1056 0.814574H118.162L69.7896 92.5126C63.4096 104.693 56.6816 113.335 49.6056 118.439C42.6456 123.543 34.0036 126.095 23.6796 126.095C20.5476 126.095 17.7636 125.863 15.3276 125.399C12.8916 125.051 10.2816 124.355 7.49756 123.311V105.389C11.9056 107.129 16.4296 107.999 21.0696 107.999C27.3336 107.999 32.3796 106.781 36.2076 104.345C40.0356 101.909 43.6316 97.7906 46.9956 91.9906L47.8656 90.4246L0.537563 0.814574H25.5936L53.9556 58.9306C56.6236 65.1946 57.9576 70.3566 57.9576 74.4166V74.7646H60.5676V74.4166C60.5676 70.0086 61.8436 64.8466 64.3956 58.9306L93.1056 0.814574Z" fill="#F9E9E0"/>
</svg>
