<svg width="122" height="127" viewBox="0 0 122 127" fill="none" xmlns="http://www.w3.org/2000/svg">
<path d="M59.3085 126.863C40.0525 126.863 25.4945 122.861 15.6345 114.857C5.77453 106.853 0.844531 96.1813 0.844531 82.8413C0.844531 74.6053 2.87453 67.2973 6.93453 60.9173C10.9945 54.4213 16.9685 49.3753 24.8565 45.7793C32.7445 42.0673 42.3145 40.2113 53.5665 40.2113C67.3705 40.2113 78.0425 42.5893 85.5825 47.3453C93.2385 51.9853 98.1105 58.0173 100.199 65.4413H102.287V62.8313C102.287 49.0273 97.7045 38.2393 88.5405 30.4673C79.3765 22.5793 65.7465 18.6353 47.6505 18.6353C30.0185 18.6353 14.9965 21.2453 2.58453 26.4653V8.71732C14.0685 3.49732 29.2065 0.887327 47.9985 0.887327C71.6625 0.887327 89.8165 6.86133 102.461 18.8093C115.221 30.7573 121.601 47.5193 121.601 69.0953C121.601 80.5793 119.455 90.4393 115.163 98.6753C110.755 107.839 103.853 114.857 94.4565 119.729C85.0605 124.485 73.3445 126.863 59.3085 126.863ZM60.3525 109.637C72.9965 109.637 82.5085 107.143 88.8885 102.155C95.3845 97.1673 98.6325 90.8453 98.6325 83.1893C98.6325 75.3013 95.3845 68.9213 88.8885 64.0493C82.5085 59.1773 72.9965 56.7413 60.3525 56.7413C47.9405 56.7413 38.4865 59.2353 31.9905 64.2233C25.4945 69.0953 22.2465 75.4173 22.2465 83.1893C22.2465 90.8453 25.4945 97.1673 31.9905 102.155C38.4865 107.143 47.9405 109.637 60.3525 109.637Z" fill="#F9E9E0"/>
</svg>
