<svg width="122" height="94" viewBox="0 0 122 94" fill="none" xmlns="http://www.w3.org/2000/svg">
<path d="M61.2023 93.3792C48.3263 93.3792 37.3063 91.3492 28.1423 87.2892C19.0943 83.2292 12.2503 77.7192 7.61031 70.7592C2.97031 63.7992 0.650313 55.9692 0.650313 47.2692C0.650313 38.5692 2.97031 30.7392 7.61031 23.7792C12.2503 16.7032 19.0943 11.1352 28.1423 7.07519C37.3063 3.01519 48.3263 0.985189 61.2023 0.985189C74.0783 0.985189 85.0403 3.01519 94.0883 7.07519C103.252 11.1352 110.154 16.7032 114.794 23.7792C119.434 30.7392 121.754 38.5692 121.754 47.2692C121.754 55.9692 119.434 63.7992 114.794 70.7592C110.154 77.7192 103.252 83.2292 94.0883 87.2892C85.0403 91.3492 74.0783 93.3792 61.2023 93.3792ZM61.2023 76.1532C69.5543 76.1532 76.6883 74.8772 82.6043 72.3252C88.5203 69.7732 92.9283 66.3512 95.8283 62.0592C98.8443 57.6512 100.352 52.7212 100.352 47.2692C100.352 41.8172 98.8443 36.9452 95.8283 32.6532C92.9283 28.2452 88.5203 24.7652 82.6043 22.2132C76.6883 19.6612 69.5543 18.3852 61.2023 18.3852C52.8503 18.3852 45.7163 19.6612 39.8003 22.2132C33.8843 24.7652 29.4183 28.2452 26.4023 32.6532C23.5023 36.9452 22.0523 41.8172 22.0523 47.2692C22.0523 52.7212 23.5023 57.6512 26.4023 62.0592C29.4183 66.3512 33.8843 69.7732 39.8003 72.3252C45.7163 74.8772 52.8503 76.1532 61.2023 76.1532Z" fill="#F9E9E0"/>
</svg>
