<svg width="110" height="89" viewBox="0 0 110 89" fill="none" xmlns="http://www.w3.org/2000/svg">
<path d="M87.6871 43.556C94.2991 43.672 99.5771 45.702 103.521 49.646C107.581 53.474 109.611 58.462 109.611 64.61C109.611 71.918 107.001 77.66 101.781 81.836C96.6771 86.012 88.9051 88.1 78.4651 88.1H0.165063V0.0560293H76.7251C86.2371 0.0560293 93.4871 2.08603 98.4751 6.14603C103.579 10.09 106.131 15.136 106.131 21.284C106.131 26.968 104.391 31.666 100.911 35.378C97.4311 38.974 93.0231 40.83 87.6871 40.946V43.556ZM21.2191 16.064V36.596H73.0711C76.5511 36.596 79.3351 35.668 81.4231 33.812C83.5111 31.84 84.5551 29.346 84.5551 26.33C84.5551 23.314 83.5111 20.878 81.4231 19.022C79.3351 17.05 76.5511 16.064 73.0711 16.064H21.2191ZM75.1591 72.092C79.3351 72.092 82.5251 71.164 84.7291 69.308C86.9331 67.336 88.0351 64.668 88.0351 61.304C88.0351 57.94 86.9331 55.33 84.7291 53.474C82.6411 51.618 79.4511 50.69 75.1591 50.69H21.2191V72.092H75.1591Z" fill="#F9E9E0"/>
</svg>
