<svg width="126" height="93" viewBox="0 0 126 93" fill="none" xmlns="http://www.w3.org/2000/svg">
<path d="M44.2515 92.688C30.2155 92.688 19.8915 90.31 13.2795 85.554C6.66753 80.798 3.36153 74.36 3.36153 66.24C3.36153 58.12 6.66753 51.682 13.2795 46.926C19.8915 42.17 30.2155 39.792 44.2515 39.792C54.9235 39.792 63.7975 40.836 70.8735 42.924C77.9495 44.896 84.8515 47.796 91.5795 51.624V43.968C91.5795 35.848 88.6215 29.41 82.7055 24.654C76.7895 19.782 68.0895 17.346 56.6055 17.346C46.1655 17.346 38.1035 19.086 32.4195 22.566C26.8515 25.93 23.4295 30.106 22.1535 35.094H0.751532C2.02753 25.002 7.30553 16.708 16.5855 10.212C25.8655 3.60003 39.2635 0.294027 56.7795 0.294027C75.3395 0.294027 89.3175 4.29603 98.7135 12.3C108.11 20.188 112.808 30.976 112.808 44.664V67.284C112.808 72.388 115.128 74.94 119.768 74.94C121.624 74.94 123.422 74.708 125.162 74.244V91.122C122.03 92.166 118.55 92.688 114.722 92.688C108.342 92.688 103.412 91.18 99.9315 88.164C96.5675 85.148 94.8855 81.088 94.8855 75.984V75.114H92.2755V75.288C92.2755 78.072 90.4195 80.798 86.7075 83.466C82.9955 86.134 77.4855 88.338 70.1775 90.078C62.8695 91.818 54.2275 92.688 44.2515 92.688ZM51.9075 77.376C66.8715 77.376 80.0955 74.186 91.5795 67.806V62.238C85.4315 59.454 79.3415 57.308 73.3095 55.8C67.2775 54.292 60.1435 53.538 51.9075 53.538C41.8155 53.538 34.7975 54.582 30.8535 56.67C26.9095 58.758 24.9375 61.658 24.9375 65.37C24.9375 69.198 26.9095 72.156 30.8535 74.244C34.7975 76.332 41.8155 77.376 51.9075 77.376Z" fill="#F9E9E0"/>
</svg>
