<svg width="260" height="38" viewBox="0 0 260 38" fill="none" xmlns="http://www.w3.org/2000/svg">
<path d="M21.1979 11.982C24.7539 11.982 27.4559 12.794 29.3039 14.418C31.1519 16.014 32.0759 18.212 32.0759 21.012C32.0759 23.784 31.1519 25.982 29.3039 27.606C27.4559 29.202 24.7539 30 21.1979 30H0.533891L0.533891 0.599998H30.3959V5.304H6.03589V11.982H21.1979ZM20.7359 25.296C22.5279 25.296 23.8859 24.89 24.8099 24.078C25.7619 23.238 26.2379 22.132 26.2379 20.76C26.2379 19.388 25.7619 18.296 24.8099 17.484C23.8859 16.672 22.5279 16.266 20.7359 16.266H6.24589V25.296H20.7359ZM42.7751 25.506H68.3111V30H37.1471V24.834C37.1471 21.978 37.8751 19.836 39.3311 18.408C40.8151 16.98 42.5791 16.056 44.6231 15.636C46.6951 15.216 49.3831 14.894 52.6871 14.67C55.1511 14.502 57.0551 14.306 58.3991 14.082C59.7711 13.858 60.9051 13.424 61.8011 12.78C62.7251 12.108 63.1871 11.114 63.1871 9.798C63.1871 6.326 59.7571 4.59 52.8971 4.59C49.3411 4.59 46.7231 5.178 45.0431 6.354C43.3911 7.53 42.5651 9.084 42.5651 11.016V12.024H36.7271V10.932C36.7271 7.6 38.0291 4.968 40.6331 3.036C43.2651 1.076 47.3531 0.0959995 52.8971 0.0959995C58.4971 0.0959995 62.5851 0.963999 65.1611 2.7C67.7371 4.408 69.0251 6.69 69.0251 9.546C69.0251 12.038 68.3391 13.914 66.9671 15.174C65.6231 16.434 63.9851 17.274 62.0531 17.694C60.1491 18.086 57.6151 18.38 54.4511 18.576C51.8191 18.744 49.7331 18.968 48.1931 19.248C46.6531 19.5 45.3651 20.046 44.3291 20.886C43.2931 21.698 42.7751 22.916 42.7751 24.54V25.506ZM79.8532 25.506H105.389V30H74.2252V24.834C74.2252 21.978 74.9532 19.836 76.4092 18.408C77.8932 16.98 79.6572 16.056 81.7012 15.636C83.7732 15.216 86.4612 14.894 89.7652 14.67C92.2292 14.502 94.1332 14.306 95.4772 14.082C96.8492 13.858 97.9832 13.424 98.8792 12.78C99.8032 12.108 100.265 11.114 100.265 9.798C100.265 6.326 96.8352 4.59 89.9752 4.59C86.4192 4.59 83.8012 5.178 82.1212 6.354C80.4692 7.53 79.6432 9.084 79.6432 11.016V12.024H73.8052V10.932C73.8052 7.6 75.1072 4.968 77.7112 3.036C80.3432 1.076 84.4312 0.0959995 89.9752 0.0959995C95.5752 0.0959995 99.6632 0.963999 102.239 2.7C104.815 4.408 106.103 6.69 106.103 9.546C106.103 12.038 105.417 13.914 104.045 15.174C102.701 16.434 101.063 17.274 99.1312 17.694C97.2272 18.086 94.6932 18.38 91.5292 18.576C88.8972 18.744 86.8112 18.968 85.2712 19.248C83.7312 19.5 82.4432 20.046 81.4072 20.886C80.3712 21.698 79.8532 22.916 79.8532 24.54V25.506ZM144.021 25.17H148.599V37.266H142.971V30H114.621V37.266H108.993V25.17H110.757C113.109 25.17 114.453 23.602 114.789 20.466L117.099 0.599998H144.021V25.17ZM138.393 25.17V5.43H122.181L120.585 19.92C120.445 21.32 120.179 22.454 119.787 23.322C119.395 24.19 118.863 24.806 118.191 25.17H138.393ZM177.127 15.174C179.283 15.37 180.963 16.098 182.167 17.358C183.399 18.59 184.015 20.116 184.015 21.936C184.015 24.54 182.755 26.626 180.235 28.194C177.715 29.734 173.543 30.504 167.719 30.504C162.035 30.504 157.891 29.608 155.287 27.816C152.683 26.024 151.381 23.63 151.381 20.634V20.046H157.219V20.634C157.219 22.09 158.059 23.322 159.739 24.33C161.419 25.338 164.079 25.842 167.719 25.842C174.663 25.842 178.135 24.372 178.135 21.432C178.135 18.632 175.209 17.232 169.357 17.232H161.797V12.99H169.357C172.325 12.99 174.453 12.626 175.741 11.898C177.057 11.142 177.715 10.176 177.715 9C177.715 7.768 176.959 6.76 175.447 5.976C173.935 5.164 171.359 4.758 167.719 4.758C164.247 4.758 161.699 5.262 160.075 6.27C158.451 7.25 157.639 8.468 157.639 9.924V10.344H151.801V9.756C151.801 6.872 153.089 4.548 155.665 2.784C158.241 0.992 162.259 0.0959995 167.719 0.0959995C171.499 0.0959995 174.565 0.459999 176.917 1.188C179.297 1.916 181.005 2.882 182.041 4.086C183.077 5.262 183.595 6.578 183.595 8.034C183.595 9.77 183.035 11.226 181.915 12.402C180.795 13.55 179.199 14.236 177.127 14.46V15.174ZM204.948 30.504C201.644 30.504 198.732 29.846 196.212 28.53C193.72 27.214 191.788 25.408 190.416 23.112C189.044 20.816 188.358 18.212 188.358 15.3C188.358 12.388 189.044 9.784 190.416 7.488C191.788 5.192 193.72 3.386 196.212 2.07C198.732 0.753999 201.644 0.0959995 204.948 0.0959995C208.252 0.0959995 211.15 0.753999 213.642 2.07C216.162 3.386 218.108 5.192 219.48 7.488C220.852 9.784 221.538 12.388 221.538 15.3C221.538 18.212 220.852 20.816 219.48 23.112C218.108 25.408 216.162 27.214 213.642 28.53C211.15 29.846 208.252 30.504 204.948 30.504ZM204.948 25.674C207.076 25.674 208.952 25.24 210.576 24.372C212.2 23.476 213.46 22.244 214.356 20.676C215.252 19.108 215.7 17.316 215.7 15.3C215.7 13.284 215.252 11.492 214.356 9.924C213.46 8.356 212.2 7.138 210.576 6.27C208.952 5.374 207.076 4.926 204.948 4.926C202.82 4.926 200.944 5.374 199.32 6.27C197.696 7.138 196.436 8.356 195.54 9.924C194.644 11.492 194.196 13.284 194.196 15.3C194.196 17.316 194.644 19.108 195.54 20.676C196.436 22.244 197.696 23.476 199.32 24.372C200.944 25.24 202.82 25.674 204.948 25.674ZM242.796 30.504C239.072 30.504 236.006 30.098 233.598 29.286C231.218 28.446 229.482 27.354 228.39 26.01C227.298 24.638 226.752 23.112 226.752 21.432V21.054H232.59V21.264C232.59 22.076 232.912 22.846 233.556 23.574C234.228 24.302 235.306 24.904 236.79 25.38C238.302 25.828 240.234 26.052 242.586 26.052C246.478 26.052 249.32 25.24 251.112 23.616C252.932 21.992 253.842 19.542 253.842 16.266C253.842 15.426 253.828 14.726 253.8 14.166H253.212C252.68 15.706 251.392 16.952 249.348 17.904C247.332 18.856 244.364 19.332 240.444 19.332C235.628 19.332 232.072 18.478 229.776 16.77C227.48 15.062 226.332 12.752 226.332 9.84C226.332 6.844 227.578 4.478 230.07 2.742C232.562 0.977999 236.538 0.0959995 241.998 0.0959995C246.114 0.0959995 249.432 0.627999 251.952 1.692C254.5 2.728 256.362 4.352 257.538 6.564C258.742 8.776 259.344 11.688 259.344 15.3C259.344 20.48 258.014 24.316 255.354 26.808C252.694 29.272 248.508 30.504 242.796 30.504ZM242.544 15.342C246.24 15.342 248.886 14.852 250.482 13.872C252.106 12.864 252.918 11.562 252.918 9.966C252.918 8.342 252.092 7.04 250.44 6.06C248.816 5.052 246.128 4.548 242.376 4.548C238.764 4.548 236.16 5.052 234.564 6.06C232.968 7.04 232.17 8.342 232.17 9.966C232.17 11.562 232.982 12.864 234.606 13.872C236.23 14.852 238.876 15.342 242.544 15.342Z" fill="#F9E9E0"/>
</svg>
