<svg width="300" height="98" viewBox="0 0 300 98" fill="none" xmlns="http://www.w3.org/2000/svg">
<path d="M25.1979 69.982C28.7539 69.982 31.4559 70.794 33.3039 72.418C35.1519 74.014 36.0759 76.212 36.0759 79.012C36.0759 81.784 35.1519 83.982 33.3039 85.606C31.4559 87.202 28.7539 88 25.1979 88H4.53389V58.6H34.3959V63.304H10.0359V69.982H25.1979ZM24.7359 83.296C26.5279 83.296 27.8859 82.89 28.8099 82.078C29.7619 81.238 30.2379 80.132 30.2379 78.76C30.2379 77.388 29.7619 76.296 28.8099 75.484C27.8859 74.672 26.5279 74.266 24.7359 74.266H10.2459V83.296H24.7359ZM50.3451 88.504C46.9571 88.504 44.4651 87.93 42.8691 86.782C41.2731 85.634 40.4751 84.08 40.4751 82.12C40.4751 80.16 41.2731 78.606 42.8691 77.458C44.4651 76.31 46.9571 75.736 50.3451 75.736C52.9211 75.736 55.0631 75.988 56.7711 76.492C58.4791 76.968 60.1451 77.668 61.7691 78.592V76.744C61.7691 74.784 61.0551 73.23 59.6271 72.082C58.1991 70.906 56.0991 70.318 53.3271 70.318C50.8071 70.318 48.8611 70.738 47.4891 71.578C46.1451 72.39 45.3191 73.398 45.0111 74.602H39.8451C40.1531 72.166 41.4271 70.164 43.6671 68.596C45.9071 67 49.1411 66.202 53.3691 66.202C57.8491 66.202 61.2231 67.168 63.4911 69.1C65.7591 71.004 66.8931 73.608 66.8931 76.912V82.372C66.8931 83.604 67.4531 84.22 68.5731 84.22C69.0211 84.22 69.4551 84.164 69.8751 84.052V88.126C69.1191 88.378 68.2791 88.504 67.3551 88.504C65.8151 88.504 64.6251 88.14 63.7851 87.412C62.9731 86.684 62.5671 85.704 62.5671 84.472V84.262H61.9371V84.304C61.9371 84.976 61.4891 85.634 60.5931 86.278C59.6971 86.922 58.3671 87.454 56.6031 87.874C54.8391 88.294 52.7531 88.504 50.3451 88.504ZM52.1931 84.808C55.8051 84.808 58.9971 84.038 61.7691 82.498V81.154C60.2851 80.482 58.8151 79.964 57.3591 79.6C55.9031 79.236 54.1811 79.054 52.1931 79.054C49.7571 79.054 48.0631 79.306 47.1111 79.81C46.1591 80.314 45.6831 81.014 45.6831 81.91C45.6831 82.834 46.1591 83.548 47.1111 84.052C48.0631 84.556 49.7571 84.808 52.1931 84.808ZM86.6944 88.504C82.0464 88.504 78.5324 87.538 76.1524 85.606C73.7724 83.674 72.5824 81.098 72.5824 77.878C72.5824 75.89 73.0724 74.126 74.0524 72.586C75.0324 71.018 76.4744 69.8 78.3784 68.932C80.2824 68.036 82.5924 67.588 85.3084 67.588C88.6404 67.588 91.2164 68.162 93.0364 69.31C94.8844 70.43 96.0604 71.886 96.5644 73.678H97.0684V73.048C97.0684 69.716 95.9624 67.112 93.7504 65.236C91.5384 63.332 88.2484 62.38 83.8804 62.38C79.6244 62.38 75.9984 63.01 73.0024 64.27V59.986C75.7744 58.726 79.4284 58.096 83.9644 58.096C89.6764 58.096 94.0584 59.538 97.1104 62.422C100.19 65.306 101.73 69.352 101.73 74.56C101.73 77.332 101.212 79.712 100.176 81.7C99.1124 83.912 97.4464 85.606 95.1784 86.782C92.9104 87.93 90.0824 88.504 86.6944 88.504ZM86.9464 84.346C89.9984 84.346 92.2944 83.744 93.8344 82.54C95.4024 81.336 96.1864 79.81 96.1864 77.962C96.1864 76.058 95.4024 74.518 93.8344 73.342C92.2944 72.166 89.9984 71.578 86.9464 71.578C83.9504 71.578 81.6684 72.18 80.1004 73.384C78.5324 74.56 77.7484 76.086 77.7484 77.962C77.7484 79.81 78.5324 81.336 80.1004 82.54C81.6684 83.744 83.9504 84.346 86.9464 84.346ZM116.134 88.504C112.746 88.504 110.254 87.93 108.658 86.782C107.062 85.634 106.264 84.08 106.264 82.12C106.264 80.16 107.062 78.606 108.658 77.458C110.254 76.31 112.746 75.736 116.134 75.736C118.71 75.736 120.852 75.988 122.56 76.492C124.268 76.968 125.934 77.668 127.558 78.592V76.744C127.558 74.784 126.844 73.23 125.416 72.082C123.988 70.906 121.888 70.318 119.116 70.318C116.596 70.318 114.65 70.738 113.278 71.578C111.934 72.39 111.108 73.398 110.8 74.602H105.634C105.942 72.166 107.216 70.164 109.456 68.596C111.696 67 114.93 66.202 119.158 66.202C123.638 66.202 127.012 67.168 129.28 69.1C131.548 71.004 132.682 73.608 132.682 76.912V82.372C132.682 83.604 133.242 84.22 134.362 84.22C134.81 84.22 135.244 84.164 135.664 84.052V88.126C134.908 88.378 134.068 88.504 133.144 88.504C131.604 88.504 130.414 88.14 129.574 87.412C128.762 86.684 128.356 85.704 128.356 84.472V84.262H127.726V84.304C127.726 84.976 127.278 85.634 126.382 86.278C125.486 86.922 124.156 87.454 122.392 87.874C120.628 88.294 118.542 88.504 116.134 88.504ZM117.982 84.808C121.594 84.808 124.786 84.038 127.558 82.498V81.154C126.074 80.482 124.604 79.964 123.148 79.6C121.692 79.236 119.97 79.054 117.982 79.054C115.546 79.054 113.852 79.306 112.9 79.81C111.948 80.314 111.472 81.014 111.472 81.91C111.472 82.834 111.948 83.548 112.9 84.052C113.852 84.556 115.546 84.808 117.982 84.808ZM142.361 88.504C141.157 88.504 140.163 88.35 139.379 88.042V83.632C139.939 83.828 140.485 83.926 141.017 83.926C142.165 83.926 143.005 83.59 143.537 82.918C144.097 82.246 144.461 81.266 144.629 79.978L146.141 66.748H168.149V88H162.983V71.074H150.635L149.501 81.154C149.221 83.562 148.479 85.396 147.275 86.656C146.071 87.888 144.433 88.504 142.361 88.504ZM189.588 73.006C192.584 73.006 194.838 73.664 196.35 74.98C197.862 76.296 198.618 78.144 198.618 80.524C198.618 82.876 197.862 84.71 196.35 86.026C194.838 87.342 192.584 88 189.588 88H174.384V66.748H179.55V73.006H189.588ZM189.21 83.968C190.582 83.968 191.632 83.66 192.36 83.044C193.088 82.4 193.452 81.56 193.452 80.524C193.452 79.46 193.088 78.62 192.36 78.004C191.632 77.36 190.582 77.038 189.21 77.038H179.298V83.968H189.21ZM226.744 66.748V88H221.578V81.028H213.094C212.03 81.028 211.176 81.196 210.532 81.532C209.888 81.868 209.398 82.456 209.062 83.296L207.214 88H200.872L202.594 84.178C203.21 82.778 203.854 81.812 204.526 81.28C205.226 80.72 206.22 80.398 207.508 80.314V79.726C205.772 79.614 204.386 78.998 203.35 77.878C202.314 76.758 201.796 75.372 201.796 73.72C201.796 71.536 202.552 69.828 204.064 68.596C205.576 67.364 207.858 66.748 210.91 66.748H226.744ZM221.872 77.584V70.738H211.204C209.832 70.738 208.782 71.046 208.054 71.662C207.326 72.278 206.962 73.118 206.962 74.182C206.962 75.218 207.326 76.044 208.054 76.66C208.782 77.276 209.832 77.584 211.204 77.584H221.872ZM254.836 74.98V66.748H260.002V88H254.836V79.306H238.12V88H232.954V66.748H238.12V74.98H254.836ZM296.164 94.006H291.208V88H266.218V66.748H271.384V83.716H287.05V66.748H292.216V83.716H296.164V94.006Z" fill="#F9E9E0"/>
<path d="M30.3639 24.09C32.5759 24.286 34.2979 25 35.5299 26.232C36.7619 27.464 37.3779 29.088 37.3779 31.104C37.3779 33.624 36.5099 35.57 34.7739 36.942C33.0379 38.314 30.3079 39 26.5839 39H4.53389V9.6H26.6259C29.8459 9.6 32.2679 10.258 33.8919 11.574C35.5159 12.89 36.3279 14.654 36.3279 16.866C36.3279 18.658 35.7819 20.142 34.6899 21.318C33.6259 22.466 32.1839 23.152 30.3639 23.376V24.09ZM10.2459 14.304V21.948H25.7439C27.2839 21.948 28.4599 21.612 29.2719 20.94C30.0839 20.24 30.4899 19.302 30.4899 18.126C30.4899 16.95 30.0839 16.026 29.2719 15.354C28.4599 14.654 27.2839 14.304 25.7439 14.304H10.2459ZM26.2899 34.296C28.0539 34.296 29.3699 33.946 30.2379 33.246C31.1059 32.546 31.5399 31.566 31.5399 30.306C31.5399 29.018 31.1059 28.024 30.2379 27.324C29.3699 26.596 28.0539 26.232 26.2899 26.232H10.2459V34.296H26.2899ZM51.4525 39.504C48.0645 39.504 45.5725 38.93 43.9765 37.782C42.3805 36.634 41.5825 35.08 41.5825 33.12C41.5825 31.16 42.3805 29.606 43.9765 28.458C45.5725 27.31 48.0645 26.736 51.4525 26.736C54.0285 26.736 56.1705 26.988 57.8785 27.492C59.5865 27.968 61.2525 28.668 62.8765 29.592V27.744C62.8765 25.784 62.1625 24.23 60.7345 23.082C59.3065 21.906 57.2065 21.318 54.4345 21.318C51.9145 21.318 49.9685 21.738 48.5965 22.578C47.2525 23.39 46.4265 24.398 46.1185 25.602H40.9525C41.2605 23.166 42.5345 21.164 44.7745 19.596C47.0145 18 50.2485 17.202 54.4765 17.202C58.9565 17.202 62.3305 18.168 64.5985 20.1C66.8665 22.004 68.0005 24.608 68.0005 27.912V33.372C68.0005 34.604 68.5605 35.22 69.6805 35.22C70.1285 35.22 70.5625 35.164 70.9825 35.052V39.126C70.2265 39.378 69.3865 39.504 68.4625 39.504C66.9225 39.504 65.7325 39.14 64.8925 38.412C64.0805 37.684 63.6745 36.704 63.6745 35.472V35.262H63.0445V35.304C63.0445 35.976 62.5965 36.634 61.7005 37.278C60.8045 37.922 59.4745 38.454 57.7105 38.874C55.9465 39.294 53.8605 39.504 51.4525 39.504ZM53.3005 35.808C56.9125 35.808 60.1045 35.038 62.8765 33.498V32.154C61.3925 31.482 59.9225 30.964 58.4665 30.6C57.0105 30.236 55.2885 30.054 53.3005 30.054C50.8645 30.054 49.1705 30.306 48.2185 30.81C47.2665 31.314 46.7905 32.014 46.7905 32.91C46.7905 33.834 47.2665 34.548 48.2185 35.052C49.1705 35.556 50.8645 35.808 53.3005 35.808ZM78.0998 39.504C76.8958 39.504 75.9018 39.35 75.1178 39.042V34.632C75.6778 34.828 76.2238 34.926 76.7558 34.926C77.9038 34.926 78.7438 34.59 79.2758 33.918C79.8358 33.246 80.1998 32.266 80.3678 30.978L81.8798 17.748H103.888V39H98.7218V22.074H86.3738L85.2398 32.154C84.9598 34.562 84.2178 36.396 83.0138 37.656C81.8098 38.888 80.1718 39.504 78.0998 39.504ZM137.674 28.416C137.674 28.864 137.646 29.424 137.59 30.096H113.986C114.378 31.776 115.372 33.12 116.968 34.128C118.564 35.136 120.692 35.64 123.352 35.64C127.496 35.64 130.408 34.492 132.088 32.196H137.17C136.722 33.372 135.952 34.52 134.86 35.64C133.796 36.732 132.284 37.656 130.324 38.412C128.392 39.14 126.026 39.504 123.226 39.504C120.202 39.504 117.612 39.014 115.456 38.034C113.3 37.054 111.662 35.724 110.542 34.044C109.45 32.364 108.904 30.474 108.904 28.374C108.904 26.274 109.464 24.384 110.584 22.704C111.704 20.996 113.342 19.652 115.498 18.672C117.654 17.692 120.258 17.202 123.31 17.202C126.362 17.202 128.966 17.692 131.122 18.672C133.278 19.652 134.902 20.996 135.994 22.704C137.114 24.412 137.674 26.316 137.674 28.416ZM123.31 21.108C120.622 21.108 118.48 21.626 116.884 22.662C115.288 23.698 114.308 25.084 113.944 26.82H132.634C132.27 25.084 131.29 23.698 129.694 22.662C128.098 21.626 125.97 21.108 123.31 21.108ZM164.571 25.98V17.748H169.737V39H164.571V30.306H147.855V39H142.689V17.748H147.855V25.98H164.571ZM188.468 39H183.302V22.074H173.432V17.748H198.38V22.074H188.468V39ZM202.079 39V17.748H207.077V29.508C207.077 30.908 207.007 32.084 206.867 33.036C206.755 33.988 206.559 35.038 206.279 36.186H206.909L221.273 17.748H229.337V39H224.381V27.24C224.381 25.812 224.437 24.622 224.549 23.67C224.689 22.69 224.885 21.654 225.137 20.562H224.549L210.185 39H202.079ZM257.43 25.98V17.748H262.596V39H257.43V30.306H240.714V39H235.548V17.748H240.714V25.98H257.43ZM278.01 39.504C274.622 39.504 272.13 38.93 270.534 37.782C268.938 36.634 268.14 35.08 268.14 33.12C268.14 31.16 268.938 29.606 270.534 28.458C272.13 27.31 274.622 26.736 278.01 26.736C280.586 26.736 282.728 26.988 284.436 27.492C286.144 27.968 287.81 28.668 289.434 29.592V27.744C289.434 25.784 288.72 24.23 287.292 23.082C285.864 21.906 283.764 21.318 280.992 21.318C278.472 21.318 276.526 21.738 275.154 22.578C273.81 23.39 272.984 24.398 272.676 25.602H267.51C267.818 23.166 269.092 21.164 271.332 19.596C273.572 18 276.806 17.202 281.034 17.202C285.514 17.202 288.888 18.168 291.156 20.1C293.424 22.004 294.558 24.608 294.558 27.912V33.372C294.558 34.604 295.118 35.22 296.238 35.22C296.686 35.22 297.12 35.164 297.54 35.052V39.126C296.784 39.378 295.944 39.504 295.02 39.504C293.48 39.504 292.29 39.14 291.45 38.412C290.638 37.684 290.232 36.704 290.232 35.472V35.262H289.602V35.304C289.602 35.976 289.154 36.634 288.258 37.278C287.362 37.922 286.032 38.454 284.268 38.874C282.504 39.294 280.418 39.504 278.01 39.504ZM279.858 35.808C283.47 35.808 286.662 35.038 289.434 33.498V32.154C287.95 31.482 286.48 30.964 285.024 30.6C283.568 30.236 281.846 30.054 279.858 30.054C277.422 30.054 275.728 30.306 274.776 30.81C273.824 31.314 273.348 32.014 273.348 32.91C273.348 33.834 273.824 34.548 274.776 35.052C275.728 35.556 277.422 35.808 279.858 35.808Z" fill="#F9E9E0"/>
</svg>
