<svg width="1935" height="231" viewBox="0 0 1935 231" fill="none" xmlns="http://www.w3.org/2000/svg">
<g clip-path="url(#clip0_294_222)">
<rect width="1935" height="231" fill="#7EA3AC"/>
<path d="M0 231C63.2773 -16.4309 264.114 -3.62484 387 2.32081V37.5373C174.242 4.60762 50.4384 113.916 36.6825 231H0Z" fill="#B10729"/>
<path d="M68.0862 231H35C60.7337 48.9977 274.415 9.76926 387 38.5071V68.1566C174.238 29.8396 76.3577 159.841 68.0862 231Z" fill="#F4739C"/>
<path d="M98.6784 231L67 231C99.5789 69.6605 284.618 41.708 387 67.3029V94.726C187.286 63.1894 124.848 164.727 98.6784 231Z" fill="#B55D69"/>
<path d="M126.268 231H99C140.499 94.9434 276.374 71.6732 387 94.8477V119.579C230.47 85.3606 151.975 160.737 126.268 231Z" fill="#027E4E"/>
<path d="M156.562 231H125C166.053 119.479 279.986 90.6931 387 119.37V143.95C233.067 107.384 169.39 191.608 156.562 231Z" fill="#F9E9E0"/>
<path d="M387 231C450.277 -16.4309 651.114 -3.62484 774 2.32081V37.5373C561.242 4.60762 437.438 113.916 423.682 231H387Z" fill="#F9E9E0"/>
<path d="M455.086 231H422C447.734 48.9977 661.415 9.76926 774 38.5071V68.1566C561.238 29.8396 463.358 159.841 455.086 231Z" fill="#B10729"/>
<path d="M485.678 231L454 231C486.579 69.6605 671.618 41.708 774 67.3029V94.726C574.286 63.1894 511.848 164.727 485.678 231Z" fill="#F4739C"/>
<path d="M513.268 231H486C527.499 94.9434 663.374 71.6732 774 94.8477V119.579C617.47 85.3606 538.975 160.737 513.268 231Z" fill="#B55D69"/>
<path d="M543.562 231H512C553.053 119.479 666.986 90.6931 774 119.37V143.95C620.067 107.384 556.39 191.608 543.562 231Z" fill="#027E4E"/>
<path d="M774 231C837.277 -16.4309 1038.11 -3.62484 1161 2.32081V37.5373C948.242 4.60762 824.438 113.916 810.682 231H774Z" fill="#027E4E"/>
<path d="M842.086 231H809C834.734 48.9977 1048.42 9.76926 1161 38.5071V68.1566C948.238 29.8396 850.358 159.841 842.086 231Z" fill="#F9E9E0"/>
<path d="M872.678 231L841 231C873.579 69.6605 1058.62 41.708 1161 67.3029V94.726C961.286 63.1894 898.848 164.727 872.678 231Z" fill="#B10729"/>
<path d="M900.268 231H873C914.499 94.9434 1050.37 71.6732 1161 94.8477V119.579C1004.47 85.3606 925.975 160.737 900.268 231Z" fill="#F4739C"/>
<path d="M930.562 231H899C940.053 119.479 1053.99 90.6931 1161 119.37V143.95C1007.07 107.384 943.39 191.608 930.562 231Z" fill="#B55D69"/>
<path d="M1161 231C1224.28 -16.4309 1425.11 -3.62484 1548 2.32081V37.5373C1335.24 4.60762 1211.44 113.916 1197.68 231H1161Z" fill="#B55D69"/>
<path d="M1229.09 231H1196C1221.73 48.9977 1435.42 9.76926 1548 38.5071V68.1566C1335.24 29.8396 1237.36 159.841 1229.09 231Z" fill="#027E4E"/>
<path d="M1259.68 231L1228 231C1260.58 69.6605 1445.62 41.708 1548 67.3029V94.726C1348.29 63.1894 1285.85 164.727 1259.68 231Z" fill="#F9E9E0"/>
<path d="M1287.27 231H1260C1301.5 94.9434 1437.37 71.6732 1548 94.8477V119.579C1391.47 85.3606 1312.98 160.737 1287.27 231Z" fill="#B10729"/>
<path d="M1317.56 231H1286C1327.05 119.479 1440.99 90.6931 1548 119.37V143.95C1394.07 107.384 1330.39 191.608 1317.56 231Z" fill="#F4739C"/>
<path d="M1548 231C1611.28 -16.4309 1812.11 -3.62484 1935 2.32081V37.5373C1722.24 4.60762 1598.44 113.916 1584.68 231H1548Z" fill="#F4739C"/>
<path d="M1616.09 231H1583C1608.73 48.9977 1822.42 9.76926 1935 38.5071V68.1566C1722.24 29.8396 1624.36 159.841 1616.09 231Z" fill="#B55D69"/>
<path d="M1646.68 231L1615 231C1647.58 69.6605 1832.62 41.708 1935 67.3029V94.726C1735.29 63.1894 1672.85 164.727 1646.68 231Z" fill="#027E4E"/>
<path d="M1674.27 231H1647C1688.5 94.9434 1824.37 71.6732 1935 94.8477V119.579C1778.47 85.3606 1699.98 160.737 1674.27 231Z" fill="#F9E9E0"/>
<path d="M1704.56 231H1673C1714.05 119.479 1827.99 90.6931 1935 119.37V143.95C1781.07 107.384 1717.39 191.608 1704.56 231Z" fill="#B10729"/>
</g>
<defs>
<clipPath id="clip0_294_222">
<rect width="1935" height="231" fill="white"/>
</clipPath>
</defs>
</svg>
