<svg width="1001" height="239" viewBox="0 0 1001 239" fill="none" xmlns="http://www.w3.org/2000/svg">
<g clip-path="url(#clip0_340_609)">
<rect width="1001" height="239" transform="matrix(-1 0 0 1 1001 0)" fill="#7EA3AC"/>
<path d="M952.14 88.3826C943.628 85.1507 934.726 83.0614 925.666 82.1694L883.975 78.0651L747.281 76.3324L721.672 79.3088L715.137 114.141L715.97 115.302C733.066 139.126 758.346 155.809 786.974 162.157V162.157L908.251 180.414C919.429 182.097 930.837 181.361 941.706 178.257L967.322 170.941L937.934 157.647L971.221 148.14L939.483 131.179L977.181 123.448L946.074 107.175L971.913 95.8913L952.14 88.3826Z" fill="#F9E9E0"/>
<path d="M698.126 80.3959L715.138 114.142L721.672 79.3102L698.126 80.3959Z" fill="#1E1E1E"/>
<path d="M856.737 10.4009C851.124 13.2655 846.288 17.4465 842.642 22.5866V22.5866C833.565 35.3843 826.928 49.7479 823.066 64.9551L819.073 80.6782L878.342 101.123L881.832 91.9672C886.589 79.4857 893.213 67.7984 901.477 57.3042L908.379 48.5396C910.372 46.0082 910.198 42.3955 907.969 40.0682V40.0682C906.365 38.3929 903.987 37.7051 901.736 38.2659L893.742 40.2575L898.691 33.4959C900.769 30.6562 900.638 26.7641 898.373 24.071V24.071C895.968 21.2109 891.846 20.512 888.632 22.4194L877.006 29.3192L882.977 21.9715C888.036 15.7456 884.388 6.38014 876.451 5.21683V5.21683L875.062 5.18692C872.104 5.12323 869.153 5.49139 866.302 6.27976V6.27976C864.141 6.87732 862.045 7.69194 860.048 8.71119L856.737 10.4009Z" fill="#F9E9E0"/>
<path fill-rule="evenodd" clip-rule="evenodd" d="M824.242 218.103L810.239 216.491L809.21 225.432L832.052 228.061L832.609 223.223L840.144 169.765L831.232 168.508L824.242 218.103Z" fill="#1E1E1E"/>
<path fill-rule="evenodd" clip-rule="evenodd" d="M855.752 223.241L841.75 221.629L840.721 230.57L863.563 233.2L864.12 228.361L871.654 174.903L862.743 173.647L855.752 223.241Z" fill="#1E1E1E"/>
<ellipse rx="7.22207" ry="6.79725" transform="matrix(-0.961552 0.274623 0.274623 0.961552 762.131 99.2642)" fill="#1E1E1E"/>
<path d="M617.18 88.3607C608.669 85.1288 599.767 83.0396 590.707 82.1476L549.016 78.0432L412.321 76.3105L386.712 79.287L380.178 114.119L381.011 115.28C398.106 139.104 423.387 155.787 452.015 162.135V162.135L573.292 180.392C584.47 182.075 595.878 181.339 606.747 178.235L632.363 170.919L602.975 157.625L636.261 148.118L604.524 131.157L642.222 123.427L611.115 107.153L636.954 95.8694L617.18 88.3607Z" fill="#F9E9E0"/>
<path d="M363.167 80.3741L380.178 114.12L386.713 79.2883L363.167 80.3741Z" fill="#1E1E1E"/>
<path d="M503.032 16.4531C498.795 21.1181 495.751 26.7396 494.159 32.837V32.837C490.197 48.0184 489.07 63.8009 490.838 79.3911L492.665 95.5102L555.334 93.6657L555.359 83.8673C555.393 70.51 557.454 57.2351 561.471 44.4961L564.827 33.8566C565.796 30.7837 564.354 27.4664 561.447 26.0779V26.0779C559.354 25.0783 556.886 25.2765 554.979 26.5971L548.207 31.2879L550.443 23.2128C551.383 19.8216 549.883 16.2276 546.812 14.51V14.51C543.55 12.6858 539.447 13.4903 537.116 16.4112L528.683 26.9775L531.668 17.9927C534.198 10.3797 527.473 2.91043 519.637 4.63032V4.63032L518.327 5.09374C515.538 6.08045 512.908 7.46877 510.52 9.21484V9.21484C508.71 10.5383 507.039 12.0414 505.531 13.7013L503.032 16.4531Z" fill="#F9E9E0"/>
<path fill-rule="evenodd" clip-rule="evenodd" d="M489.282 218.081L475.28 216.469L474.251 225.41L497.093 228.039L497.65 223.201L505.184 169.743L496.273 168.486L489.282 218.081Z" fill="#1E1E1E"/>
<path fill-rule="evenodd" clip-rule="evenodd" d="M520.793 223.219L506.791 221.607L505.761 230.548L528.603 233.178L529.16 228.339L536.695 174.881L527.783 173.625L520.793 223.219Z" fill="#1E1E1E"/>
<ellipse rx="7.22207" ry="6.79725" transform="matrix(-0.961552 0.274623 0.274623 0.961552 427.172 99.2423)" fill="#1E1E1E"/>
<path d="M282.195 87.9624C273.684 84.7305 264.782 82.6412 255.722 81.7493L214.031 77.6449L77.3366 75.9122L51.7276 78.8887L45.1929 113.72L46.0261 114.882C63.1214 138.706 88.4023 155.389 117.03 161.737V161.737L238.307 179.994C249.485 181.677 260.893 180.941 271.762 177.837L297.378 170.521L267.99 157.226L301.276 147.72L269.539 130.759L307.237 123.028L276.13 106.755L301.969 95.4711L282.195 87.9624Z" fill="#F9E9E0"/>
<path d="M28.1818 79.9757L45.1935 113.721L51.7283 78.8899L28.1818 79.9757Z" fill="#1E1E1E"/>
<path d="M129.082 30.6362C128.151 37.7072 128.946 44.8985 131.398 51.5956V51.5956C136.519 65.5799 143.775 78.6869 152.907 90.4509L174.492 118.258L224.938 81.0273L209.361 57.0132C202.415 46.3053 196.974 34.6934 193.191 22.5036L189.613 10.9738C188.658 7.89654 185.583 5.99206 182.403 6.50804V6.50804C180.113 6.87947 178.198 8.44878 177.384 10.6206L174.492 18.3347L171.728 10.4245C170.568 7.10261 167.287 5.00403 163.784 5.34286V5.34286C160.065 5.70271 157.152 8.70193 156.901 12.4306L155.993 25.9189L153.326 16.8347C151.066 9.13738 141.283 6.8325 135.824 12.7113V12.7113L135.012 13.8386C133.283 16.2387 131.913 18.8783 130.945 21.674V21.674C130.212 23.7931 129.696 25.9808 129.403 28.2039L129.082 30.6362Z" fill="#F9E9E0"/>
<path fill-rule="evenodd" clip-rule="evenodd" d="M154.297 217.682L140.295 216.07L139.266 225.011L162.108 227.641L162.665 222.802L170.2 169.344L161.288 168.088L154.297 217.682Z" fill="#1E1E1E"/>
<path fill-rule="evenodd" clip-rule="evenodd" d="M185.808 222.821L171.806 221.209L170.777 230.15L193.618 232.78L194.175 227.941L201.71 174.483L192.798 173.227L185.808 222.821Z" fill="#1E1E1E"/>
<ellipse rx="7.22207" ry="6.79725" transform="matrix(-0.961552 0.274623 0.274623 0.961552 92.1869 98.844)" fill="#1E1E1E"/>
</g>
<defs>
<clipPath id="clip0_340_609">
<rect width="1001" height="239" fill="white" transform="matrix(-1 0 0 1 1001 0)"/>
</clipPath>
</defs>
</svg>
