<svg width="201" height="31" viewBox="0 0 201 31" fill="none" xmlns="http://www.w3.org/2000/svg">
<path d="M19.4679 30.504C15.3799 30.504 11.8799 29.846 8.96789 28.53C6.05589 27.214 3.85789 25.408 2.37389 23.112C0.889891 20.816 0.147891 18.212 0.147891 15.3C0.147891 12.388 0.889891 9.784 2.37389 7.488C3.85789 5.192 6.05589 3.386 8.96789 2.07C11.8799 0.753999 15.3799 0.0959995 19.4679 0.0959995C23.5559 0.0959995 27.0559 0.753999 29.9679 2.07C32.8799 3.386 35.0779 5.192 36.5619 7.488C38.0459 9.784 38.7879 12.388 38.7879 15.3C38.7879 18.212 38.0459 20.816 36.5619 23.112C35.0779 25.408 32.8799 27.214 29.9679 28.53C27.0559 29.846 23.5559 30.504 19.4679 30.504ZM19.4679 25.674C22.3519 25.674 24.8019 25.226 26.8179 24.33C28.8619 23.406 30.3879 22.16 31.3959 20.592C32.4319 19.024 32.9499 17.26 32.9499 15.3C32.9499 13.34 32.4319 11.576 31.3959 10.008C30.3879 8.44 28.8619 7.208 26.8179 6.312C24.8019 5.388 22.3519 4.926 19.4679 4.926C16.5839 4.926 14.1199 5.388 12.0759 6.312C10.0599 7.208 8.53389 8.44 7.49789 10.008C6.48989 11.576 5.98589 13.34 5.98589 15.3C5.98589 17.26 6.48989 19.024 7.49789 20.592C8.53389 22.16 10.0599 23.406 12.0759 24.33C14.1199 25.226 16.5839 25.674 19.4679 25.674ZM58.9594 30.504C54.0034 30.504 50.2794 29.356 47.7874 27.06C45.2954 24.764 44.0494 21.432 44.0494 17.064C44.0494 12.472 45.3514 9 47.9554 6.648C50.5874 4.296 54.6194 3.12 60.0514 3.12C62.4874 3.12 64.3074 3.022 65.5114 2.826C66.7154 2.602 67.5134 2.28 67.9054 1.86C68.2974 1.44 68.4934 0.851998 68.4934 0.0959995H73.7014C73.7014 1.972 73.3794 3.414 72.7354 4.422C72.0914 5.43 70.8734 6.172 69.0814 6.648C67.3174 7.096 64.6854 7.32 61.1854 7.32C56.7054 7.32 53.4994 8.076 51.5674 9.588C49.6354 11.1 48.6694 13.368 48.6694 16.392V16.854H49.1734C50.2654 12.906 54.0174 10.932 60.4294 10.932C63.1734 10.932 65.4834 11.352 67.3594 12.192C69.2634 13.004 70.6774 14.138 71.6014 15.594C72.5534 17.05 73.0294 18.702 73.0294 20.55C73.0294 23.602 71.8674 26.024 69.5434 27.816C67.2194 29.608 63.6914 30.504 58.9594 30.504ZM58.7494 26.388C61.8294 26.388 64.1114 25.856 65.5954 24.792C67.1074 23.7 67.8634 22.286 67.8634 20.55C67.8634 18.842 67.1074 17.47 65.5954 16.434C64.1114 15.37 61.8294 14.838 58.7494 14.838C55.6414 14.838 53.3454 15.37 51.8614 16.434C50.3774 17.47 49.6354 18.842 49.6354 20.55C49.6354 22.286 50.3774 23.7 51.8614 24.792C53.3454 25.856 55.6414 26.388 58.7494 26.388ZM78.3516 30.504C77.1476 30.504 76.1536 30.35 75.3696 30.042V25.632C75.9296 25.828 76.4756 25.926 77.0076 25.926C78.1556 25.926 78.9956 25.59 79.5276 24.918C80.0876 24.246 80.4516 23.266 80.6196 21.978L82.1316 8.748H104.14V30H98.9736V13.074H86.6256L85.4916 23.154C85.2116 25.562 84.4696 27.396 83.2656 28.656C82.0616 29.888 80.4236 30.504 78.3516 30.504ZM120.412 30.504C117.024 30.504 114.532 29.93 112.936 28.782C111.34 27.634 110.542 26.08 110.542 24.12C110.542 22.16 111.34 20.606 112.936 19.458C114.532 18.31 117.024 17.736 120.412 17.736C122.988 17.736 125.13 17.988 126.838 18.492C128.546 18.968 130.212 19.668 131.836 20.592V18.744C131.836 16.784 131.122 15.23 129.694 14.082C128.266 12.906 126.166 12.318 123.394 12.318C120.874 12.318 118.928 12.738 117.556 13.578C116.212 14.39 115.386 15.398 115.078 16.602H109.912C110.22 14.166 111.494 12.164 113.734 10.596C115.974 9 119.208 8.202 123.436 8.202C127.916 8.202 131.29 9.168 133.558 11.1C135.826 13.004 136.96 15.608 136.96 18.912V24.372C136.96 25.604 137.52 26.22 138.64 26.22C139.088 26.22 139.522 26.164 139.942 26.052V30.126C139.186 30.378 138.346 30.504 137.422 30.504C135.882 30.504 134.692 30.14 133.852 29.412C133.04 28.684 132.634 27.704 132.634 26.472V26.262H132.004V26.304C132.004 26.976 131.556 27.634 130.66 28.278C129.764 28.922 128.434 29.454 126.67 29.874C124.906 30.294 122.82 30.504 120.412 30.504ZM122.26 26.808C125.872 26.808 129.064 26.038 131.836 24.498V23.154C130.352 22.482 128.882 21.964 127.426 21.6C125.97 21.236 124.248 21.054 122.26 21.054C119.824 21.054 118.13 21.306 117.178 21.81C116.226 22.314 115.75 23.014 115.75 23.91C115.75 24.834 116.226 25.548 117.178 26.052C118.13 26.556 119.824 26.808 122.26 26.808ZM156.005 18.912L169.781 30H162.473L149.663 19.29V30H144.497V8.748H149.663V18.618L162.179 8.748H169.361L156.005 18.912ZM185.436 30.504C182.328 30.504 179.668 30.014 177.456 29.034C175.272 28.054 173.62 26.724 172.5 25.044C171.38 23.364 170.82 21.474 170.82 19.374C170.82 17.274 171.38 15.384 172.5 13.704C173.62 11.996 175.272 10.652 177.456 9.672C179.668 8.692 182.328 8.202 185.436 8.202C188.544 8.202 191.19 8.692 193.374 9.672C195.586 10.652 197.252 11.996 198.372 13.704C199.492 15.384 200.052 17.274 200.052 19.374C200.052 21.474 199.492 23.364 198.372 25.044C197.252 26.724 195.586 28.054 193.374 29.034C191.19 30.014 188.544 30.504 185.436 30.504ZM185.436 26.346C187.452 26.346 189.174 26.038 190.602 25.422C192.03 24.806 193.094 23.98 193.794 22.944C194.522 21.88 194.886 20.69 194.886 19.374C194.886 18.058 194.522 16.882 193.794 15.846C193.094 14.782 192.03 13.942 190.602 13.326C189.174 12.71 187.452 12.402 185.436 12.402C183.42 12.402 181.698 12.71 180.27 13.326C178.842 13.942 177.764 14.782 177.036 15.846C176.336 16.882 175.986 18.058 175.986 19.374C175.986 20.69 176.336 21.88 177.036 22.944C177.764 23.98 178.842 24.806 180.27 25.422C181.698 26.038 183.42 26.346 185.436 26.346Z" fill="#F9E9E0"/>
</svg>
