<svg width="171" height="39" viewBox="0 0 171 39" fill="none" xmlns="http://www.w3.org/2000/svg">
<path d="M22.0719 21.248C23.6679 21.276 24.9419 21.766 25.8939 22.718C26.8739 23.642 27.3639 24.846 27.3639 26.33C27.3639 28.094 26.7339 29.48 25.4739 30.488C24.2419 31.496 22.3659 32 19.8459 32H0.94589L0.94589 10.748H19.4259C21.7219 10.748 23.4719 11.238 24.6759 12.218C25.9079 13.17 26.5239 14.388 26.5239 15.872C26.5239 17.244 26.1039 18.378 25.2639 19.274C24.4239 20.142 23.3599 20.59 22.0719 20.618V21.248ZM6.02789 14.612V19.568H18.5439C19.3839 19.568 20.0559 19.344 20.5599 18.896C21.0639 18.42 21.3159 17.818 21.3159 17.09C21.3159 16.362 21.0639 15.774 20.5599 15.326C20.0559 14.85 19.3839 14.612 18.5439 14.612H6.02789ZM19.0479 28.136C20.0559 28.136 20.8259 27.912 21.3579 27.464C21.8899 26.988 22.1559 26.344 22.1559 25.532C22.1559 24.72 21.8899 24.09 21.3579 23.642C20.8539 23.194 20.0839 22.97 19.0479 22.97H6.02789V28.136H19.0479ZM60.0996 21.416C60.0996 21.864 60.0716 22.424 60.0156 23.096H36.4116C36.8036 24.776 37.7976 26.12 39.3936 27.128C40.9896 28.136 43.1176 28.64 45.7776 28.64C49.9216 28.64 52.8336 27.492 54.5136 25.196H59.5956C59.1476 26.372 58.3776 27.52 57.2856 28.64C56.2216 29.732 54.7096 30.656 52.7496 31.412C50.8176 32.14 48.4516 32.504 45.6516 32.504C42.6276 32.504 40.0376 32.014 37.8816 31.034C35.7256 30.054 34.0876 28.724 32.9676 27.044C31.8756 25.364 31.3296 23.474 31.3296 21.374C31.3296 19.274 31.8896 17.384 33.0096 15.704C34.1296 13.996 35.7676 12.652 37.9236 11.672C40.0796 10.692 42.6836 10.202 45.7356 10.202C48.7876 10.202 51.3916 10.692 53.5476 11.672C55.7036 12.652 57.3276 13.996 58.4196 15.704C59.5396 17.412 60.0996 19.316 60.0996 21.416ZM45.7356 14.108C43.0476 14.108 40.9056 14.626 39.3096 15.662C37.7136 16.698 36.7336 18.084 36.3696 19.82H55.0596C54.6956 18.084 53.7156 16.698 52.1196 15.662C50.5236 14.626 48.3956 14.108 45.7356 14.108ZM101.696 10.748V27.716H105.644V38.006H100.688V32H65.954V10.748H71.12V27.716H81.326V10.748H86.324V27.716H96.53V10.748L101.696 10.748ZM137.084 21.416C137.084 21.864 137.056 22.424 137 23.096H113.396C113.788 24.776 114.782 26.12 116.378 27.128C117.974 28.136 120.102 28.64 122.762 28.64C126.906 28.64 129.818 27.492 131.498 25.196H136.58C136.132 26.372 135.362 27.52 134.27 28.64C133.206 29.732 131.694 30.656 129.734 31.412C127.802 32.14 125.436 32.504 122.636 32.504C119.612 32.504 117.022 32.014 114.866 31.034C112.71 30.054 111.072 28.724 109.952 27.044C108.86 25.364 108.314 23.474 108.314 21.374C108.314 19.274 108.874 17.384 109.994 15.704C111.114 13.996 112.752 12.652 114.908 11.672C117.064 10.692 119.668 10.202 122.72 10.202C125.772 10.202 128.376 10.692 130.532 11.672C132.688 12.652 134.312 13.996 135.404 15.704C136.524 17.412 137.084 19.316 137.084 21.416ZM122.72 14.108C120.032 14.108 117.89 14.626 116.294 15.662C114.698 16.698 113.718 18.084 113.354 19.82H132.044C131.68 18.084 130.7 16.698 129.104 15.662C127.508 14.626 125.38 14.108 122.72 14.108ZM142.939 32V10.748H147.937V22.508C147.937 23.908 147.867 25.084 147.727 26.036C147.615 26.988 147.419 28.038 147.139 29.186H147.769L162.133 10.748L170.197 10.748V32H165.241V20.24C165.241 18.812 165.297 17.622 165.409 16.67C165.549 15.69 165.745 14.654 165.997 13.562H165.409L151.045 32H142.939ZM156.883 7.808C153.859 7.808 151.507 7.136 149.827 5.792C148.147 4.448 147.209 2.67 147.013 0.457997L151.381 0.457997C151.521 1.69 152.053 2.656 152.977 3.356C153.901 4.056 155.203 4.406 156.883 4.406C158.563 4.406 159.851 4.056 160.747 3.356C161.671 2.656 162.203 1.69 162.343 0.457997H166.753C166.529 2.67 165.577 4.448 163.897 5.792C162.245 7.136 159.907 7.808 156.883 7.808Z" fill="#F9E9E0"/>
</svg>
