<svg width="89" height="23" viewBox="0 0 89 23" fill="none" xmlns="http://www.w3.org/2000/svg">
<path d="M14.7139 0.201996C17.7099 0.201996 20.2719 0.691997 22.3999 1.672C24.5559 2.652 26.1799 3.996 27.2719 5.704C28.3919 7.384 28.9519 9.274 28.9519 11.374C28.9519 13.474 28.3919 15.364 27.2719 17.044C26.1799 18.724 24.5559 20.054 22.3999 21.034C20.2719 22.014 17.7099 22.504 14.7139 22.504C11.9979 22.504 9.60389 22.112 7.53189 21.328C5.48789 20.516 3.86389 19.424 2.65989 18.052C1.48389 16.652 0.769891 15.084 0.517891 13.348H5.59989C5.93589 14.748 6.87389 15.952 8.41389 16.96C9.98189 17.94 12.0819 18.43 14.7139 18.43C17.1779 18.43 19.1659 17.954 20.6779 17.002C22.2179 16.022 23.2119 14.734 23.6599 13.138H11.7319L11.7319 9.61H23.6599C23.2119 8.014 22.2179 6.74 20.6779 5.788C19.1659 4.808 17.1779 4.318 14.7139 4.318C12.0819 4.318 9.98189 4.822 8.41389 5.83C6.87389 6.81 5.93589 8 5.59989 9.4H0.517891C0.769891 7.664 1.48389 6.11 2.65989 4.738C3.86389 3.338 5.48789 2.232 7.53189 1.42C9.60389 0.607997 11.9979 0.201996 14.7139 0.201996ZM46.6788 22H41.5128V5.074H31.6428V0.747997H56.5908V5.074H46.6788V22ZM73.9126 22.504C70.8046 22.504 68.1446 22.014 65.9326 21.034C63.7486 20.054 62.0966 18.724 60.9766 17.044C59.8566 15.364 59.2966 13.474 59.2966 11.374C59.2966 9.274 59.8566 7.384 60.9766 5.704C62.0966 3.996 63.7486 2.652 65.9326 1.672C68.1446 0.691997 70.8046 0.201996 73.9126 0.201996C77.0206 0.201996 79.6666 0.691997 81.8506 1.672C84.0626 2.652 85.7286 3.996 86.8486 5.704C87.9686 7.384 88.5286 9.274 88.5286 11.374C88.5286 13.474 87.9686 15.364 86.8486 17.044C85.7286 18.724 84.0626 20.054 81.8506 21.034C79.6666 22.014 77.0206 22.504 73.9126 22.504ZM73.9126 18.346C75.9286 18.346 77.6506 18.038 79.0786 17.422C80.5066 16.806 81.5706 15.98 82.2706 14.944C82.9986 13.88 83.3626 12.69 83.3626 11.374C83.3626 10.058 82.9986 8.882 82.2706 7.846C81.5706 6.782 80.5066 5.942 79.0786 5.326C77.6506 4.71 75.9286 4.402 73.9126 4.402C71.8966 4.402 70.1746 4.71 68.7466 5.326C67.3186 5.942 66.2406 6.782 65.5126 7.846C64.8126 8.882 64.4626 10.058 64.4626 11.374C64.4626 12.69 64.8126 13.88 65.5126 14.944C66.2406 15.98 67.3186 16.806 68.7466 17.422C70.1746 18.038 71.8966 18.346 73.9126 18.346Z" fill="#F9E9E0"/>
</svg>
