<svg width="169" height="23" viewBox="0 0 169 23" fill="none" xmlns="http://www.w3.org/2000/svg">
<path d="M14.9659 22.504C11.9699 22.504 9.39389 22.014 7.23789 21.034C5.10989 20.054 3.48589 18.724 2.36589 17.044C1.27389 15.364 0.727891 13.474 0.727891 11.374C0.727891 9.274 1.27389 7.384 2.36589 5.704C3.48589 3.996 5.10989 2.652 7.23789 1.672C9.39389 0.691998 11.9699 0.201998 14.9659 0.201998C17.6819 0.201998 20.0619 0.607998 22.1059 1.42C24.1779 2.232 25.8019 3.352 26.9779 4.78C28.1819 6.208 28.9099 7.832 29.1619 9.652H23.9539C23.6459 8.168 22.7219 6.922 21.1819 5.914C19.6419 4.906 17.5699 4.402 14.9659 4.402C13.0619 4.402 11.4239 4.71 10.0519 5.326C8.67989 5.942 7.64389 6.782 6.94389 7.846C6.24389 8.91 5.89389 10.086 5.89389 11.374C5.89389 12.662 6.24389 13.838 6.94389 14.902C7.64389 15.966 8.67989 16.806 10.0519 17.422C11.4239 18.038 13.0619 18.346 14.9659 18.346C17.5699 18.346 19.6419 17.842 21.1819 16.834C22.7219 15.826 23.6459 14.58 23.9539 13.096H29.1619C28.9099 14.916 28.1819 16.54 26.9779 17.968C25.8019 19.368 24.1779 20.474 22.1059 21.286C20.0619 22.098 17.6819 22.504 14.9659 22.504ZM43.771 22.504C40.383 22.504 37.891 21.93 36.295 20.782C34.699 19.634 33.901 18.08 33.901 16.12C33.901 14.16 34.699 12.606 36.295 11.458C37.891 10.31 40.383 9.736 43.771 9.736C46.347 9.736 48.489 9.988 50.197 10.492C51.905 10.968 53.571 11.668 55.195 12.592V10.744C55.195 8.784 54.481 7.23 53.053 6.082C51.625 4.906 49.525 4.318 46.753 4.318C44.233 4.318 42.287 4.738 40.915 5.578C39.571 6.39 38.745 7.398 38.437 8.602H33.271C33.579 6.166 34.853 4.164 37.093 2.596C39.333 0.999998 42.567 0.201998 46.795 0.201998C51.275 0.201998 54.649 1.168 56.917 3.1C59.185 5.004 60.319 7.608 60.319 10.912V16.372C60.319 17.604 60.879 18.22 61.999 18.22C62.447 18.22 62.881 18.164 63.301 18.052V22.126C62.545 22.378 61.705 22.504 60.781 22.504C59.241 22.504 58.051 22.14 57.211 21.412C56.399 20.684 55.993 19.704 55.993 18.472V18.262H55.363V18.304C55.363 18.976 54.915 19.634 54.019 20.278C53.123 20.922 51.793 21.454 50.029 21.874C48.265 22.294 46.179 22.504 43.771 22.504ZM45.619 18.808C49.231 18.808 52.423 18.038 55.195 16.498V15.154C53.711 14.482 52.241 13.964 50.785 13.6C49.329 13.236 47.607 13.054 45.619 13.054C43.183 13.054 41.489 13.306 40.537 13.81C39.585 14.314 39.109 15.014 39.109 15.91C39.109 16.834 39.585 17.548 40.537 18.052C41.489 18.556 43.183 18.808 45.619 18.808ZM67.8564 22V0.747998H75.8784L82.7244 12.76C83.3964 14.104 83.7324 15.098 83.7324 15.742V15.868H84.3624V15.742C84.3624 15.21 84.6984 14.216 85.3704 12.76L92.2584 0.747998H100.238V22H95.2824V9.19C95.2824 7.146 95.4784 5.27 95.8704 3.562H95.2404L86.5884 18.64H81.5064L72.8544 3.562H72.2664C72.6584 5.466 72.8544 7.342 72.8544 9.19V22H67.8564ZM120.69 22.504C117.582 22.504 114.922 22.014 112.71 21.034C110.526 20.054 108.874 18.724 107.754 17.044C106.634 15.364 106.074 13.474 106.074 11.374C106.074 9.274 106.634 7.384 107.754 5.704C108.874 3.996 110.526 2.652 112.71 1.672C114.922 0.691998 117.582 0.201998 120.69 0.201998C123.798 0.201998 126.444 0.691998 128.628 1.672C130.84 2.652 132.506 3.996 133.626 5.704C134.746 7.384 135.306 9.274 135.306 11.374C135.306 13.474 134.746 15.364 133.626 17.044C132.506 18.724 130.84 20.054 128.628 21.034C126.444 22.014 123.798 22.504 120.69 22.504ZM120.69 18.346C122.706 18.346 124.428 18.038 125.856 17.422C127.284 16.806 128.348 15.98 129.048 14.944C129.776 13.88 130.14 12.69 130.14 11.374C130.14 10.058 129.776 8.882 129.048 7.846C128.348 6.782 127.284 5.942 125.856 5.326C124.428 4.71 122.706 4.402 120.69 4.402C118.674 4.402 116.952 4.71 115.524 5.326C114.096 5.942 113.018 6.782 112.29 7.846C111.59 8.882 111.24 10.058 111.24 11.374C111.24 12.69 111.59 13.88 112.29 14.944C113.018 15.98 114.096 16.806 115.524 17.422C116.952 18.038 118.674 18.346 120.69 18.346ZM168.702 11.416C168.702 11.864 168.674 12.424 168.618 13.096H145.014C145.406 14.776 146.4 16.12 147.996 17.128C149.592 18.136 151.72 18.64 154.38 18.64C158.524 18.64 161.436 17.492 163.116 15.196H168.198C167.75 16.372 166.98 17.52 165.888 18.64C164.824 19.732 163.312 20.656 161.352 21.412C159.42 22.14 157.054 22.504 154.254 22.504C151.23 22.504 148.64 22.014 146.484 21.034C144.328 20.054 142.69 18.724 141.57 17.044C140.478 15.364 139.932 13.474 139.932 11.374C139.932 9.274 140.492 7.384 141.612 5.704C142.732 3.996 144.37 2.652 146.526 1.672C148.682 0.691998 151.286 0.201998 154.338 0.201998C157.39 0.201998 159.994 0.691998 162.15 1.672C164.306 2.652 165.93 3.996 167.022 5.704C168.142 7.412 168.702 9.316 168.702 11.416ZM154.338 4.108C151.65 4.108 149.508 4.626 147.912 5.662C146.316 6.698 145.336 8.084 144.972 9.82H163.662C163.298 8.084 162.318 6.698 160.722 5.662C159.126 4.626 156.998 4.108 154.338 4.108Z" fill="#F9E9E0"/>
</svg>
