<svg width="272" height="31" viewBox="0 0 272 31" fill="none" xmlns="http://www.w3.org/2000/svg">
<path d="M22.8279 16.98V8.748H27.9939V30H22.8279V21.306H6.11189V30H0.945891V8.748H6.11189V16.98H22.8279ZM44.2476 30.504C40.8596 30.504 38.3676 29.93 36.7716 28.782C35.1756 27.634 34.3776 26.08 34.3776 24.12C34.3776 22.16 35.1756 20.606 36.7716 19.458C38.3676 18.31 40.8596 17.736 44.2476 17.736C46.8236 17.736 48.9656 17.988 50.6736 18.492C52.3816 18.968 54.0476 19.668 55.6716 20.592V18.744C55.6716 16.784 54.9576 15.23 53.5296 14.082C52.1016 12.906 50.0016 12.318 47.2296 12.318C44.7096 12.318 42.7636 12.738 41.3916 13.578C40.0476 14.39 39.2216 15.398 38.9136 16.602H33.7476C34.0556 14.166 35.3296 12.164 37.5696 10.596C39.8096 9 43.0436 8.202 47.2716 8.202C51.7516 8.202 55.1256 9.168 57.3936 11.1C59.6616 13.004 60.7956 15.608 60.7956 18.912V24.372C60.7956 25.604 61.3556 26.22 62.4756 26.22C62.9236 26.22 63.3576 26.164 63.7776 26.052V30.126C63.0216 30.378 62.1816 30.504 61.2576 30.504C59.7176 30.504 58.5276 30.14 57.6876 29.412C56.8756 28.684 56.4696 27.704 56.4696 26.472V26.262H55.8396V26.304C55.8396 26.976 55.3916 27.634 54.4956 28.278C53.5996 28.922 52.2696 29.454 50.5056 29.874C48.7416 30.294 46.6556 30.504 44.2476 30.504ZM46.0956 26.808C49.7076 26.808 52.8996 26.038 55.6716 24.498V23.154C54.1876 22.482 52.7176 21.964 51.2616 21.6C49.8056 21.236 48.0836 21.054 46.0956 21.054C43.6596 21.054 41.9656 21.306 41.0136 21.81C40.0616 22.314 39.5856 23.014 39.5856 23.91C39.5856 24.834 40.0616 25.548 41.0136 26.052C41.9656 26.556 43.6596 26.808 46.0956 26.808ZM81.4369 30.504C76.7889 30.504 73.2749 29.538 70.8949 27.606C68.5149 25.674 67.3249 23.098 67.3249 19.878C67.3249 17.89 67.8149 16.126 68.7949 14.586C69.7749 13.018 71.2169 11.8 73.1209 10.932C75.0249 10.036 77.3349 9.588 80.0509 9.588C83.3829 9.588 85.9589 10.162 87.7789 11.31C89.6269 12.43 90.8029 13.886 91.3069 15.678H91.8109V15.048C91.8109 11.716 90.7049 9.112 88.4929 7.236C86.2809 5.332 82.9909 4.38 78.6229 4.38C74.3669 4.38 70.7409 5.01 67.7449 6.27V1.986C70.5169 0.725999 74.1709 0.0959995 78.7069 0.0959995C84.4189 0.0959995 88.8009 1.538 91.8529 4.422C94.9329 7.306 96.4729 11.352 96.4729 16.56C96.4729 19.332 95.9549 21.712 94.9189 23.7C93.8549 25.912 92.1889 27.606 89.9209 28.782C87.6529 29.93 84.8249 30.504 81.4369 30.504ZM81.6889 26.346C84.7409 26.346 87.0369 25.744 88.5769 24.54C90.1449 23.336 90.9289 21.81 90.9289 19.962C90.9289 18.058 90.1449 16.518 88.5769 15.342C87.0369 14.166 84.7409 13.578 81.6889 13.578C78.6929 13.578 76.4109 14.18 74.8429 15.384C73.2749 16.56 72.4909 18.086 72.4909 19.962C72.4909 21.81 73.2749 23.336 74.8429 24.54C76.4109 25.744 78.6929 26.346 81.6889 26.346ZM130.071 19.416C130.071 19.864 130.043 20.424 129.987 21.096H106.383C106.775 22.776 107.769 24.12 109.365 25.128C110.961 26.136 113.089 26.64 115.749 26.64C119.893 26.64 122.805 25.492 124.485 23.196H129.567C129.119 24.372 128.349 25.52 127.257 26.64C126.193 27.732 124.681 28.656 122.721 29.412C120.789 30.14 118.423 30.504 115.623 30.504C112.599 30.504 110.009 30.014 107.853 29.034C105.697 28.054 104.059 26.724 102.939 25.044C101.847 23.364 101.301 21.474 101.301 19.374C101.301 17.274 101.861 15.384 102.981 13.704C104.101 11.996 105.739 10.652 107.895 9.672C110.051 8.692 112.655 8.202 115.707 8.202C118.759 8.202 121.363 8.692 123.519 9.672C125.675 10.652 127.299 11.996 128.391 13.704C129.511 15.412 130.071 17.316 130.071 19.416ZM115.707 12.108C113.019 12.108 110.877 12.626 109.281 13.662C107.685 14.698 106.705 16.084 106.341 17.82H125.031C124.667 16.084 123.687 14.698 122.091 13.662C120.495 12.626 118.367 12.108 115.707 12.108ZM159.695 18.912L171.539 30H164.903L153.941 19.416V30H148.943V19.374L137.939 30H131.345L143.189 18.912L131.765 8.748H138.233L148.943 18.576V8.748H153.941V18.534L164.609 8.748H171.119L159.695 18.912ZM197.571 16.98V8.748H202.737V30H197.571V21.306H180.855V30H175.689V8.748H180.855V16.98H197.571ZM223.191 30.504C220.083 30.504 217.423 30.014 215.211 29.034C213.027 28.054 211.375 26.724 210.255 25.044C209.135 23.364 208.575 21.474 208.575 19.374C208.575 17.274 209.135 15.384 210.255 13.704C211.375 11.996 213.027 10.652 215.211 9.672C217.423 8.692 220.083 8.202 223.191 8.202C226.299 8.202 228.945 8.692 231.129 9.672C233.341 10.652 235.007 11.996 236.127 13.704C237.247 15.384 237.807 17.274 237.807 19.374C237.807 21.474 237.247 23.364 236.127 25.044C235.007 26.724 233.341 28.054 231.129 29.034C228.945 30.014 226.299 30.504 223.191 30.504ZM223.191 26.346C225.207 26.346 226.929 26.038 228.357 25.422C229.785 24.806 230.849 23.98 231.549 22.944C232.277 21.88 232.641 20.69 232.641 19.374C232.641 18.058 232.277 16.882 231.549 15.846C230.849 14.782 229.785 13.942 228.357 13.326C226.929 12.71 225.207 12.402 223.191 12.402C221.175 12.402 219.453 12.71 218.025 13.326C216.597 13.942 215.519 14.782 214.791 15.846C214.091 16.882 213.741 18.058 213.741 19.374C213.741 20.69 214.091 21.88 214.791 22.944C215.519 23.98 216.597 24.806 218.025 25.422C219.453 26.038 221.175 26.346 223.191 26.346ZM271.202 19.416C271.202 19.864 271.174 20.424 271.118 21.096H247.514C247.906 22.776 248.9 24.12 250.496 25.128C252.092 26.136 254.22 26.64 256.88 26.64C261.024 26.64 263.936 25.492 265.616 23.196H270.698C270.25 24.372 269.48 25.52 268.388 26.64C267.324 27.732 265.812 28.656 263.852 29.412C261.92 30.14 259.554 30.504 256.754 30.504C253.73 30.504 251.14 30.014 248.984 29.034C246.828 28.054 245.19 26.724 244.07 25.044C242.978 23.364 242.432 21.474 242.432 19.374C242.432 17.274 242.992 15.384 244.112 13.704C245.232 11.996 246.87 10.652 249.026 9.672C251.182 8.692 253.786 8.202 256.838 8.202C259.89 8.202 262.494 8.692 264.65 9.672C266.806 10.652 268.43 11.996 269.522 13.704C270.642 15.412 271.202 17.316 271.202 19.416ZM256.838 12.108C254.15 12.108 252.008 12.626 250.412 13.662C248.816 14.698 247.836 16.084 247.472 17.82H266.162C265.798 16.084 264.818 14.698 263.222 13.662C261.626 12.626 259.498 12.108 256.838 12.108Z" fill="#F9E9E0"/>
</svg>
