<svg width="161" height="23" viewBox="0 0 161 23" fill="none" xmlns="http://www.w3.org/2000/svg">
<path d="M0.945891 22L0.945891 0.747998H8.96789L15.8139 12.76C16.4859 14.104 16.8219 15.098 16.8219 15.742V15.868H17.4519V15.742C17.4519 15.21 17.7879 14.216 18.4599 12.76L25.3479 0.747998H33.3279V22H28.3719V9.19C28.3719 7.146 28.5679 5.27 28.9599 3.562H28.3299L19.6779 18.64H14.5959L5.94389 3.562H5.35589C5.74789 5.466 5.94389 7.342 5.94389 9.19V22H0.945891ZM67.9336 11.416C67.9336 11.864 67.9056 12.424 67.8496 13.096H44.2456C44.6376 14.776 45.6316 16.12 47.2276 17.128C48.8236 18.136 50.9516 18.64 53.6116 18.64C57.7556 18.64 60.6676 17.492 62.3476 15.196H67.4296C66.9816 16.372 66.2116 17.52 65.1196 18.64C64.0556 19.732 62.5436 20.656 60.5836 21.412C58.6516 22.14 56.2856 22.504 53.4856 22.504C50.4616 22.504 47.8716 22.014 45.7156 21.034C43.5596 20.054 41.9216 18.724 40.8016 17.044C39.7096 15.364 39.1636 13.474 39.1636 11.374C39.1636 9.274 39.7236 7.384 40.8436 5.704C41.9636 3.996 43.6016 2.652 45.7576 1.672C47.9136 0.691998 50.5176 0.201998 53.5696 0.201998C56.6216 0.201998 59.2256 0.691998 61.3816 1.672C63.5376 2.652 65.1616 3.996 66.2536 5.704C67.3736 7.412 67.9336 9.316 67.9336 11.416ZM53.5696 4.108C50.8816 4.108 48.7396 4.626 47.1436 5.662C45.5476 6.698 44.5676 8.084 44.2036 9.82H62.8936C62.5296 8.084 61.5496 6.698 59.9536 5.662C58.3576 4.626 56.2296 4.108 53.5696 4.108ZM86.808 22.504C83.812 22.504 81.236 22.014 79.08 21.034C76.952 20.054 75.328 18.724 74.208 17.044C73.116 15.364 72.57 13.474 72.57 11.374C72.57 9.274 73.116 7.384 74.208 5.704C75.328 3.996 76.952 2.652 79.08 1.672C81.236 0.691998 83.812 0.201998 86.808 0.201998C89.524 0.201998 91.904 0.607998 93.948 1.42C96.02 2.232 97.644 3.352 98.82 4.78C100.024 6.208 100.752 7.832 101.004 9.652H95.796C95.488 8.168 94.564 6.922 93.024 5.914C91.484 4.906 89.412 4.402 86.808 4.402C84.904 4.402 83.266 4.71 81.894 5.326C80.522 5.942 79.486 6.782 78.786 7.846C78.086 8.91 77.736 10.086 77.736 11.374C77.736 12.662 78.086 13.838 78.786 14.902C79.486 15.966 80.522 16.806 81.894 17.422C83.266 18.038 84.904 18.346 86.808 18.346C89.412 18.346 91.484 17.842 93.024 16.834C94.564 15.826 95.488 14.58 95.796 13.096H101.004C100.752 14.916 100.024 16.54 98.82 17.968C97.644 19.368 96.02 20.474 93.948 21.286C91.904 22.098 89.524 22.504 86.808 22.504ZM118.316 22H113.15V5.074H103.28V0.747998H128.228V5.074H118.316V22ZM145.55 22.504C142.442 22.504 139.782 22.014 137.57 21.034C135.386 20.054 133.734 18.724 132.614 17.044C131.494 15.364 130.934 13.474 130.934 11.374C130.934 9.274 131.494 7.384 132.614 5.704C133.734 3.996 135.386 2.652 137.57 1.672C139.782 0.691998 142.442 0.201998 145.55 0.201998C148.658 0.201998 151.304 0.691998 153.488 1.672C155.7 2.652 157.366 3.996 158.486 5.704C159.606 7.384 160.166 9.274 160.166 11.374C160.166 13.474 159.606 15.364 158.486 17.044C157.366 18.724 155.7 20.054 153.488 21.034C151.304 22.014 148.658 22.504 145.55 22.504ZM145.55 18.346C147.566 18.346 149.288 18.038 150.716 17.422C152.144 16.806 153.208 15.98 153.908 14.944C154.636 13.88 155 12.69 155 11.374C155 10.058 154.636 8.882 153.908 7.846C153.208 6.782 152.144 5.942 150.716 5.326C149.288 4.71 147.566 4.402 145.55 4.402C143.534 4.402 141.812 4.71 140.384 5.326C138.956 5.942 137.878 6.782 137.15 7.846C136.45 8.882 136.1 10.058 136.1 11.374C136.1 12.69 136.45 13.88 137.15 14.944C137.878 15.98 138.956 16.806 140.384 17.422C141.812 18.038 143.534 18.346 145.55 18.346Z" fill="#F9E9E0"/>
</svg>
