<svg width="93" height="31" viewBox="0 0 93 31" fill="none" xmlns="http://www.w3.org/2000/svg">
<path d="M15.0499 30.504C10.4019 30.504 6.88789 29.538 4.50789 27.606C2.12789 25.674 0.937891 23.098 0.937891 19.878C0.937891 17.89 1.42789 16.126 2.40789 14.586C3.38789 13.018 4.82989 11.8 6.73389 10.932C8.63789 10.036 10.9479 9.588 13.6639 9.588C16.9959 9.588 19.5719 10.162 21.3919 11.31C23.2399 12.43 24.4159 13.886 24.9199 15.678H25.4239V15.048C25.4239 11.716 24.3179 9.112 22.1059 7.236C19.8939 5.332 16.6039 4.38 12.2359 4.38C7.97989 4.38 4.35389 5.01 1.35789 6.27V1.986C4.12989 0.725999 7.78389 0.0959995 12.3199 0.0959995C18.0319 0.0959995 22.4139 1.538 25.4659 4.422C28.5459 7.306 30.0859 11.352 30.0859 16.56C30.0859 19.332 29.5679 21.712 28.5319 23.7C27.4679 25.912 25.8019 27.606 23.5339 28.782C21.2659 29.93 18.4379 30.504 15.0499 30.504ZM15.3019 26.346C18.3539 26.346 20.6499 25.744 22.1899 24.54C23.7579 23.336 24.5419 21.81 24.5419 19.962C24.5419 18.058 23.7579 16.518 22.1899 15.342C20.6499 14.166 18.3539 13.578 15.3019 13.578C12.3059 13.578 10.0239 14.18 8.45589 15.384C6.88789 16.56 6.10389 18.086 6.10389 19.962C6.10389 21.81 6.88789 23.336 8.45589 24.54C10.0239 25.744 12.3059 26.346 15.3019 26.346ZM35.7733 30.504C34.5693 30.504 33.5753 30.35 32.7913 30.042V25.632C33.3513 25.828 33.8973 25.926 34.4293 25.926C35.5773 25.926 36.4173 25.59 36.9493 24.918C37.5093 24.246 37.8733 23.266 38.0413 21.978L39.5533 8.748H61.5613V30H56.3953V13.074H44.0473L42.9133 23.154C42.6333 25.562 41.8913 27.396 40.6873 28.656C39.4833 29.888 37.8453 30.504 35.7733 30.504ZM92.4077 8.748V30H87.2417V23.028H78.7577C77.6937 23.028 76.8397 23.196 76.1957 23.532C75.5517 23.868 75.0617 24.456 74.7257 25.296L72.8777 30H66.5357L68.2577 26.178C68.8737 24.778 69.5177 23.812 70.1897 23.28C70.8897 22.72 71.8837 22.398 73.1717 22.314V21.726C71.4357 21.614 70.0497 20.998 69.0137 19.878C67.9777 18.758 67.4597 17.372 67.4597 15.72C67.4597 13.536 68.2157 11.828 69.7277 10.596C71.2397 9.364 73.5217 8.748 76.5737 8.748H92.4077ZM87.5357 19.584V12.738H76.8677C75.4957 12.738 74.4457 13.046 73.7177 13.662C72.9897 14.278 72.6257 15.118 72.6257 16.182C72.6257 17.218 72.9897 18.044 73.7177 18.66C74.4457 19.276 75.4957 19.584 76.8677 19.584H87.5357Z" fill="#F9E9E0"/>
</svg>
