<svg width="262" height="31" viewBox="0 0 262 31" fill="none" xmlns="http://www.w3.org/2000/svg">
<path d="M0.299891 22L11.0939 11.164L0.719891 0.747998H7.35589L12.9419 6.46C14.0059 7.636 14.5379 8.644 14.5379 9.484V9.61H15.1679V9.484C15.1679 9.036 15.3079 8.574 15.5879 8.098C15.8679 7.622 16.2599 7.076 16.7639 6.46L22.3499 0.747998H28.9859L18.5699 11.164L29.4059 22H22.6859L16.5539 15.742C15.6299 14.762 15.1679 13.922 15.1679 13.222V13.012H14.5379V13.222C14.5379 13.894 14.0899 14.734 13.1939 15.742L7.06189 22H0.299891ZM33.8093 30.148V0.747998H38.9753L38.1773 6.67H38.8073C39.4793 4.682 40.7393 3.114 42.5873 1.966C44.4633 0.789998 46.8993 0.201998 49.8953 0.201998C52.3873 0.201998 54.5573 0.677998 56.4053 1.63C58.2533 2.582 59.6673 3.912 60.6473 5.62C61.6553 7.3 62.1593 9.218 62.1593 11.374C62.1593 13.53 61.6553 15.462 60.6473 17.17C59.6673 18.85 58.2533 20.166 56.4053 21.118C54.5573 22.042 52.3873 22.504 49.8953 22.504C46.8713 22.504 44.4353 21.93 42.5873 20.782C40.7393 19.634 39.4793 18.066 38.8073 16.078H38.1773C38.4573 17.674 38.6533 19.032 38.7653 20.152C38.9053 21.272 38.9753 22.462 38.9753 23.722V30.148H33.8093ZM48.0053 18.346C50.8333 18.346 53.0313 17.702 54.5993 16.414C56.1673 15.098 56.9513 13.418 56.9513 11.374C56.9513 9.33 56.1673 7.664 54.5993 6.376C53.0313 5.06 50.8333 4.402 48.0053 4.402C45.1493 4.402 42.9373 5.06 41.3693 6.376C39.8013 7.664 39.0173 9.33 39.0173 11.374C39.0173 13.418 39.8013 15.098 41.3693 16.414C42.9373 17.702 45.1493 18.346 48.0053 18.346ZM77.3981 22.504C74.0101 22.504 71.5181 21.93 69.9221 20.782C68.3261 19.634 67.5281 18.08 67.5281 16.12C67.5281 14.16 68.3261 12.606 69.9221 11.458C71.5181 10.31 74.0101 9.736 77.3981 9.736C79.9741 9.736 82.1161 9.988 83.8241 10.492C85.5321 10.968 87.1981 11.668 88.8221 12.592V10.744C88.8221 8.784 88.1081 7.23 86.6801 6.082C85.2521 4.906 83.1521 4.318 80.3801 4.318C77.8601 4.318 75.9141 4.738 74.5421 5.578C73.1981 6.39 72.3721 7.398 72.0641 8.602H66.8981C67.2061 6.166 68.4801 4.164 70.7201 2.596C72.9601 0.999998 76.1941 0.201998 80.4221 0.201998C84.9021 0.201998 88.2761 1.168 90.5441 3.1C92.8121 5.004 93.9461 7.608 93.9461 10.912V16.372C93.9461 17.604 94.5061 18.22 95.6261 18.22C96.0741 18.22 96.5081 18.164 96.9281 18.052V22.126C96.1721 22.378 95.3321 22.504 94.4081 22.504C92.8681 22.504 91.6781 22.14 90.8381 21.412C90.0261 20.684 89.6201 19.704 89.6201 18.472V18.262H88.9901V18.304C88.9901 18.976 88.5421 19.634 87.6461 20.278C86.7501 20.922 85.4201 21.454 83.6561 21.874C81.8921 22.294 79.8061 22.504 77.3981 22.504ZM79.2461 18.808C82.8581 18.808 86.0501 18.038 88.8221 16.498V15.154C87.3381 14.482 85.8681 13.964 84.4121 13.6C82.9561 13.236 81.2341 13.054 79.2461 13.054C76.8101 13.054 75.1161 13.306 74.1641 13.81C73.2121 14.314 72.7361 15.014 72.7361 15.91C72.7361 16.834 73.2121 17.548 74.1641 18.052C75.1161 18.556 76.8101 18.808 79.2461 18.808ZM123.365 8.98V0.747998H128.531V22H123.365V13.306H106.649V22H101.483V0.747998H106.649V8.98H123.365ZM163.139 11.416C163.139 11.864 163.111 12.424 163.055 13.096H139.451C139.843 14.776 140.837 16.12 142.433 17.128C144.029 18.136 146.157 18.64 148.817 18.64C152.961 18.64 155.873 17.492 157.553 15.196H162.635C162.187 16.372 161.417 17.52 160.325 18.64C159.261 19.732 157.749 20.656 155.789 21.412C153.857 22.14 151.491 22.504 148.691 22.504C145.667 22.504 143.077 22.014 140.921 21.034C138.765 20.054 137.127 18.724 136.007 17.044C134.915 15.364 134.369 13.474 134.369 11.374C134.369 9.274 134.929 7.384 136.049 5.704C137.169 3.996 138.807 2.652 140.963 1.672C143.119 0.691998 145.723 0.201998 148.775 0.201998C151.827 0.201998 154.431 0.691998 156.587 1.672C158.743 2.652 160.367 3.996 161.459 5.704C162.579 7.412 163.139 9.316 163.139 11.416ZM148.775 4.108C146.087 4.108 143.945 4.626 142.349 5.662C140.753 6.698 139.773 8.084 139.409 9.82H158.099C157.735 8.084 156.755 6.698 155.159 5.662C153.563 4.626 151.435 4.108 148.775 4.108ZM190.876 8.98V0.747998H196.042V22H190.876V13.306H174.16V22H168.994V0.747998H174.16V8.98H190.876ZM203.097 22V0.747998H208.095V12.508C208.095 13.908 208.025 15.084 207.885 16.036C207.773 16.988 207.577 18.038 207.297 19.186H207.927L222.291 0.747998H230.355V22H225.399V10.24C225.399 8.812 225.455 7.622 225.567 6.67C225.707 5.69 225.903 4.654 226.155 3.562H225.567L211.203 22H203.097ZM261.178 0.747998V22H256.012V15.028H247.528C246.464 15.028 245.61 15.196 244.966 15.532C244.322 15.868 243.832 16.456 243.496 17.296L241.648 22H235.306L237.028 18.178C237.644 16.778 238.288 15.812 238.96 15.28C239.66 14.72 240.654 14.398 241.942 14.314V13.726C240.206 13.614 238.82 12.998 237.784 11.878C236.748 10.758 236.23 9.372 236.23 7.72C236.23 5.536 236.986 3.828 238.498 2.596C240.01 1.364 242.292 0.747998 245.344 0.747998H261.178ZM256.306 11.584V4.738H245.638C244.266 4.738 243.216 5.046 242.488 5.662C241.76 6.278 241.396 7.118 241.396 8.182C241.396 9.218 241.76 10.044 242.488 10.66C243.216 11.276 244.266 11.584 245.638 11.584H256.306Z" fill="#F9E9E0"/>
</svg>
