<svg width="157" height="23" viewBox="0 0 157 23" fill="none" xmlns="http://www.w3.org/2000/svg">
<path d="M15.4619 22H10.2959V5.074H0.425891V0.747998H25.3739V5.074H15.4619V22ZM51.0388 11.248C52.6348 11.276 53.9088 11.766 54.8608 12.718C55.8408 13.642 56.3308 14.846 56.3308 16.33C56.3308 18.094 55.7008 19.48 54.4408 20.488C53.2088 21.496 51.3328 22 48.8128 22H29.9128V0.747998H48.3928C50.6888 0.747998 52.4388 1.238 53.6428 2.218C54.8748 3.17 55.4908 4.388 55.4908 5.872C55.4908 7.244 55.0708 8.378 54.2308 9.274C53.3908 10.142 52.3268 10.59 51.0388 10.618V11.248ZM34.9948 4.612V9.568H47.5108C48.3508 9.568 49.0228 9.344 49.5268 8.896C50.0308 8.42 50.2828 7.818 50.2828 7.09C50.2828 6.362 50.0308 5.774 49.5268 5.326C49.0228 4.85 48.3508 4.612 47.5108 4.612H34.9948ZM48.0148 18.136C49.0228 18.136 49.7928 17.912 50.3248 17.464C50.8568 16.988 51.1228 16.344 51.1228 15.532C51.1228 14.72 50.8568 14.09 50.3248 13.642C49.8208 13.194 49.0508 12.97 48.0148 12.97H34.9948V18.136H48.0148ZM74.9126 22.504C71.8046 22.504 69.1446 22.014 66.9326 21.034C64.7486 20.054 63.0966 18.724 61.9766 17.044C60.8566 15.364 60.2966 13.474 60.2966 11.374C60.2966 9.274 60.8566 7.384 61.9766 5.704C63.0966 3.996 64.7486 2.652 66.9326 1.672C69.1446 0.691998 71.8046 0.201998 74.9126 0.201998C78.0206 0.201998 80.6666 0.691998 82.8506 1.672C85.0626 2.652 86.7286 3.996 87.8486 5.704C88.9686 7.384 89.5286 9.274 89.5286 11.374C89.5286 13.474 88.9686 15.364 87.8486 17.044C86.7286 18.724 85.0626 20.054 82.8506 21.034C80.6666 22.014 78.0206 22.504 74.9126 22.504ZM74.9126 18.346C76.9286 18.346 78.6506 18.038 80.0786 17.422C81.5066 16.806 82.5706 15.98 83.2706 14.944C83.9986 13.88 84.3626 12.69 84.3626 11.374C84.3626 10.058 83.9986 8.882 83.2706 7.846C82.5706 6.782 81.5066 5.942 80.0786 5.326C78.6506 4.71 76.9286 4.402 74.9126 4.402C72.8966 4.402 71.1746 4.71 69.7466 5.326C68.3186 5.942 67.2406 6.782 66.5126 7.846C65.8126 8.882 65.4626 10.058 65.4626 11.374C65.4626 12.69 65.8126 13.88 66.5126 14.944C67.2406 15.98 68.3186 16.806 69.7466 17.422C71.1746 18.038 72.8966 18.346 74.9126 18.346ZM95.3721 22V0.747998H100.37V12.508C100.37 13.908 100.3 15.084 100.16 16.036C100.048 16.988 99.8521 18.038 99.5721 19.186H100.202L114.566 0.747998H122.63V22H117.674V10.24C117.674 8.812 117.73 7.622 117.842 6.67C117.982 5.69 118.178 4.654 118.43 3.562H117.842L103.478 22H95.3721ZM127.035 22L137.829 11.164L127.455 0.747998H134.091L139.677 6.46C140.741 7.636 141.273 8.644 141.273 9.484V9.61H141.903V9.484C141.903 9.036 142.043 8.574 142.323 8.098C142.603 7.622 142.995 7.076 143.499 6.46L149.085 0.747998H155.721L145.305 11.164L156.141 22H149.421L143.289 15.742C142.365 14.762 141.903 13.922 141.903 13.222V13.012H141.273V13.222C141.273 13.894 140.825 14.734 139.929 15.742L133.797 22H127.035Z" fill="#F9E9E0"/>
</svg>
